<svg width="1920" height="1080" viewBox="0 0 1920 1080" fill="none" xmlns="http://www.w3.org/2000/svg">
<path fill-rule="evenodd" clip-rule="evenodd" d="M1920 0H0V1080H1920V0ZM90.8877 506.974C79.1231 543.966 67.3069 581.121 93.8456 637.728C118.591 690.51 109.039 742.215 100.109 790.553C84.003 877.733 69.9196 953.964 262.716 1005.83C442.465 1054.18 570.831 1021.07 679.207 993.105C751.527 974.447 814.946 958.086 878.793 969.761C908.575 975.208 939.729 981.781 971.648 988.517C1110.7 1017.86 1264.27 1050.26 1382.07 1005.83C1445.06 982.068 1502.39 979.14 1556.72 976.364C1627.31 972.758 1692.84 969.409 1759.19 920.964C1857.97 848.829 1847.96 802.153 1804.58 684.934C1781.18 621.714 1799.71 569.448 1816.31 522.644C1830.49 482.667 1843.26 446.674 1827.27 411.245C1792.56 334.336 1798.57 304.633 1841.95 233.028C1885.34 161.424 1901.36 89.2886 1827.27 58.5251C1791.3 43.5908 1744.64 43.1563 1697.67 42.7189C1647.88 42.2553 1597.74 41.7884 1559.61 24.0487C1509.7 0.823803 1453.43 25.4979 1395.9 50.7244C1368.03 62.9455 1339.86 75.2962 1311.98 82.3933C1219.26 105.993 1132.54 94.3678 1042.39 82.2841C948.404 69.686 850.703 56.5897 738.624 82.3933C720.659 86.5292 702.669 91.0225 684.682 95.5149C589.79 119.216 495.006 142.889 404.667 113.907C124.246 23.9418 15.4579 187.401 93.8455 391.62C112.291 439.674 101.611 473.257 90.8877 506.974Z" fill="#E9EBF7"/>
<path fill-rule="evenodd" clip-rule="evenodd" d="M0 1052.42V1080H1066.82C1033 1072 1001.1 1063.31 970.321 1054.93C853.089 1023 752.176 995.514 623.416 1027.62C456.048 1069.36 293.948 1061.75 166.491 1055.76C112.959 1053.25 65.5378 1051.03 26.404 1052.86C16.8941 1053.31 8.10516 1053.15 0 1052.42ZM1859.44 1080H1920V1033.04C1907.02 1048.32 1890.81 1062.03 1870.9 1073.81C1867.25 1075.97 1863.42 1078.04 1859.44 1080ZM1920 707.128V512.183C1900.71 568.256 1885.92 623.248 1914.13 692.415C1916.12 697.305 1918.08 702.21 1920 707.128ZM1437.7 0H323.259C367.043 6.00286 408.139 15.473 447.248 24.4854C520.583 41.3847 586.932 56.6744 650.928 44.4764C812.482 13.6833 932.906 33.6444 1038.37 51.1255C1152.29 70.0089 1248.75 85.9984 1360.74 31.9919C1389.86 17.9521 1415.22 7.556 1437.7 0ZM153.781 0H0V776.058C46.644 699.062 37.9749 619.014 29.4456 540.257C24.2841 492.597 19.1737 445.409 26.404 399.657C37.2927 330.756 27.7852 267.23 19.4973 211.853C3.69078 106.24 -7.67979 30.2661 135.333 3.16458C141.533 1.98965 147.682 0.936997 153.781 0Z" fill="#BFC7F2"/>
<path fill-rule="evenodd" clip-rule="evenodd" d="M660.897 0H499.536C506.516 1.89138 513.774 3.52147 521.37 4.84756C570.749 13.4679 615.339 8.5331 660.897 0Z" fill="#EDF2F1"/>
</svg>
