<svg height="150" viewBox="0 0 350 150" width="350" xmlns="http://www.w3.org/2000/svg" xmlns:xlink="http://www.w3.org/1999/xlink"><clipPath id="a"><path d="m276.5 5.5a1.8 1.8 0 0 0 -1.8-1.8h-3.4l-106.6.2h-33.7l-40.2.2h-.8a1.8 1.8 0 0 0 -1.7 1.7c0 10.4-14.8 101.2-14.8 118.7a1.8 1.8 0 0 0 1.8 1.8h68.6l104.8-.3h11.3c.9-.1 15.7-102.1 16.5-120.5z"/></clipPath><path d="m103.9 49.6h-75.6a.8.8 0 0 0 0 1.5h75.6a.8.8 0 0 0 0-1.5z" opacity=".05"/><path d="m166 103.1h145.3a.7.7 0 1 0 0-1.5h-145.3a.8.8 0 0 0 0 1.5z" opacity=".05"/><path d="m213.2 25.9h99.6a.8.8 0 1 0 0-1.5h-99.6a.8.8 0 0 0 0 1.5z" opacity=".05"/><path d="m76.7 127.8c31.9 0 63.8-.5 95.6.4 16 .4 31.8 0 47.8 0 7.3 0 14.5-.4 21.7-.4a100 100 0 0 0 15.5-.4c1.9-.2 1.9-3.2 0-3a100 100 0 0 1 -15.5.4c-6.9-.1-13.9.5-20.8.4-16.3-.1-32.4.5-48.7 0-31.8-.9-63.7-.4-95.6-.4a1.5 1.5 0 0 0 0 3z" opacity=".3"/><g clip-path="url(#a)"><path d="m276.5 5.5a1.8 1.8 0 0 0 -1.8-1.8h-3.4l-106.6.2h-33.7l-40.2.2h-.8a1.8 1.8 0 0 0 -1.7 1.7c0 10.4-14.8 101.2-14.8 118.7a1.8 1.8 0 0 0 1.8 1.8h68.6l104.8-.3h11.3c.9-.1 15.7-102.1 16.5-120.5z" fill="#f2f2f2"/><path d="m117.3 31.9h-16.5c-.2 0-.4.1-.4.3a.3.3 0 0 0 .3.3h18.7a.4.4 0 0 0 .1-.3v-.2h-2.2z" opacity=".3"/><path d="m120.8 23.1c.3-2.1.6-4.2.8-6.4a.2.2 0 0 0 -.2-.2h-18.9c-.2 0-.3.1-.3.2l-.5 4c-.2 1.5-.3 3-.5 4.5s-.6 4.4-.8 6.7c0 .1 0 .2.2.2h18.9c.1 0 .3-.1.3-.2.3-2.9.7-5.8 1-8.8z" fill="#f3b110"/><path d="m114.2 16.6h-11.8c-.1.1-.1.2-.1.4s-.3 2.3-.5 3.5h19.3a12.3 12.3 0 0 0 .2-2 8.8 8.8 0 0 0 .2-1.7h-7.3z" opacity=".1"/><path d="m139 38.9h-5.4a17.7 17.7 0 0 1 -2.3 0h-8.8a.4.4 0 0 0 -.4.3c0 .2.1.4.3.4h16.4a12 12 0 0 1 1.9 0h.4a.3.3 0 0 0 .1-.2v-.4h-2.2z" opacity=".3"/><path d="m142.5 30.2c.3-2.2.6-4.3.8-6.5l-.2-.2h-18.9c-.2 0-.3.1-.3.2l-.5 4c-.2 1.5-.3 3-.5 4.5s-.6 4.5-.8 6.7c0 .1 0 .2.2.2h18.9a.3.3 0 0 0 .3-.3c.3-2.8.7-5.7 1-8.6z" fill="#ff795b"/><path d="m135.9 23.6h-11.8a.6.6 0 0 0 -.1.4c-.1 1.2-.3 2.3-.5 3.5h19.1l.2-.2a12.3 12.3 0 0 0 .2-1.9 11 11 0 0 0 .2-1.8z" opacity=".1"/><path d="m119.1 59.8h-16.5a.4.4 0 0 0 -.4.3c0 .2.1.4.3.4h18.7v-.2a.4.4 0 0 0 -.1-.3h-2.1z" opacity=".3"/><path d="m122.6 51.1c.3-2.2.5-4.3.8-6.4 0-.2-.1-.3-.2-.3h-19a.2.2 0 0 0 -.2.2l-.5 4c-.2 1.5-.4 3-.5 4.5l-.9 6.7a.2.2 0 0 0 .2.2h19q.2 0 .3-.3c.3-2.8.7-5.7 1-8.6z" fill="#f3b110"/><path d="m116 44.5h-11.9v.4c-.2 1.2-.3 2.3-.5 3.5h19.1l.2-.2a12.3 12.3 0 0 1 .2-1.9 11.1 11.1 0 0 0 .2-1.7v-.2h-7.3z" opacity=".1"/><path d="m179.2 42.1h-16.5c-.2 0-.4.1-.4.3a.3.3 0 0 0 .3.3h18.7a.4.4 0 0 0 .1-.3c0-.1 0-.1-.1-.2s-.1-.1-.2-.1z" opacity=".3"/><path d="m182.7 33.3c.3-2.1.5-4.3.8-6.4l-.2-.2h-19c-.1 0-.2.2-.2.3l-.5 3.9c-.2 1.5-.4 3.1-.5 4.6l-.9 6.7.2.2h19l.3-.2c.3-3 .7-6 1-8.9z" fill="#f3b110"/><path d="m176.1 26.7h-11.9v.5c-.2 1.1-.3 2.3-.5 3.5h19.3a13.6 13.6 0 0 1 .2-2 8.8 8.8 0 0 0 .2-1.7h-7.3z" opacity=".1"/><path d="m187.4 52.6h-16.5c-.2 0-.4.1-.4.3a.3.3 0 0 0 .3.3h18.7a.4.4 0 0 0 .1-.3c.1 0 0-.1 0-.2h-2.2z" opacity=".3"/><path d="m190.9 43.8c.3-2.1.6-4.2.8-6.4a.2.2 0 0 0 -.2-.2h-18.9c-.2 0-.3.1-.3.2l-.5 4c-.1 1.5-.3 3-.5 4.5s-.6 4.4-.8 6.7c0 .1 0 .2.2.2h18.9c.1 0 .3-.1.3-.2.3-2.9.7-5.8 1-8.8z" fill="#ff795b"/><path d="m184.3 37.3h-11.8c-.1.1-.1.2-.1.4s-.3 2.3-.5 3.5h19.3a12.3 12.3 0 0 0 .2-2 8.8 8.8 0 0 0 .2-1.7h-7.3z" opacity=".1"/><path d="m205 30.6h-16.6a.3.3 0 0 0 -.3.3c-.1.2.1.3.2.3h18.4a.1.1 0 0 1 .1.1h.3c0-.1.1-.2.1-.3v-.2h-2.2z" opacity=".3"/><path d="m208.5 21.8c.2-2.1.5-4.3.8-6.4l-.2-.2h-19c-.1 0-.2.1-.2.3l-.5 3.9-.6 4.6c-.2 2.2-.5 4.4-.8 6.7a.2.2 0 0 0 .2.2h19a.2.2 0 0 0 .2-.2c.4-3 .7-6 1.1-8.9z" fill="#ff795b"/><path d="m201.9 15.2h-11.9v.5c-.2 1.1-.3 2.3-.6 3.5h19.3l.3-2c.1-.5.1-1.1.2-1.7h-7.3zm6.8 3.6.2-1.2z" opacity=".1"/><path d="m228.6 67.7h-16.5a.4.4 0 0 0 -.4.3c0 .2.1.4.3.4h18.7a.3.3 0 0 0 .1-.2c.1-.1 0-.2 0-.3h-2.2z" opacity=".3"/><path d="m232.1 58.9c.3-2.1.6-4.2.8-6.4a.2.2 0 0 0 -.2-.2h-18.9c-.2 0-.3.1-.3.2l-.5 4c-.1 1.5-.3 3-.5 4.5s-.6 4.5-.8 6.7c0 .1 0 .2.2.2h18.9a.3.3 0 0 0 .3-.3c.3-2.8.7-5.7 1-8.7z" fill="#f3b110"/><path d="m225.5 52.4h-11.8c-.1.1-.1.2-.1.4s-.3 2.3-.5 3.5h19.1c.1 0 .1-.1.2-.2a12.3 12.3 0 0 0 .2-1.9 11 11 0 0 0 .2-1.8z" opacity=".1"/><path d="m212.8 78.5h-16.5c-.2-.1-.4.1-.4.3a.3.3 0 0 0 .3.3h18.7c.1 0 .1-.1.1-.2v-.2h-2.2z" opacity=".3"/><path d="m216.3 69.8c.3-2.1.5-4.3.8-6.4a.2.2 0 0 0 -.2-.2h-19a.2.2 0 0 0 -.2.2l-.5 4c-.2 1.5-.4 3-.5 4.5l-.9 6.7c0 .2.1.3.2.3h19l.3-.2c.3-3.1.7-6 1-8.9z" fill="#99b14a"/><path d="m209.7 63.2h-11.9v.4c-.2 1.2-.3 2.4-.5 3.5h.1c0 .1.1 0 .1 0h19.1a13.6 13.6 0 0 1 .2-2 9.9 9.9 0 0 0 .2-1.7h-7.3z" opacity=".1"/><path d="m236.6 91h-16.6a.4.4 0 0 0 -.3.4c-.1.1.1.3.2.3h18.8v-.2c0-.1 0-.2-.1-.2s-.1-.1-.2-.1h-1.9z" opacity=".3"/><path d="m240.1 82.3c.2-2.2.5-4.3.8-6.4 0-.2-.1-.3-.2-.3h-19a.2.2 0 0 0 -.2.2l-.5 4-.6 4.5c-.2 2.3-.5 4.5-.8 6.7 0 .1.1.3.2.3h19a.2.2 0 0 0 .2-.2c.4-3 .7-5.9 1.1-8.8z" fill="#99b14a"/><path d="m233.5 75.7h-11.9v.4c-.2 1.2-.3 2.4-.6 3.5h19.3l.3-2a8.8 8.8 0 0 1 .2-1.7v-.2zm6.8 3.6.2-1.2z" opacity=".1"/><path d="m134.7 100.9h-16.5c-.2 0-.4.1-.4.3a.3.3 0 0 0 .3.3h18.7a.4.4 0 0 0 .1-.3.3.3 0 0 0 -.1-.2h-2.1z" opacity=".3"/><path d="m138.2 92.1c.3-2.1.5-4.2.8-6.4a.2.2 0 0 0 -.2-.2h-19l-.2.2-.5 4c-.2 1.5-.4 3-.5 4.5l-.9 6.7a.2.2 0 0 0 .2.2h19l.2-.2c.4-2.9.8-5.8 1.1-8.8z" fill="#f3b110"/><path d="m131.6 85.6h-11.9v.4c-.2 1.1-.3 2.3-.5 3.5h19.3a12.3 12.3 0 0 1 .2-1.9 11 11 0 0 0 .2-1.8h-7.3z" opacity=".1"/><path d="m161.6 109.8h-16.6c-.2 0-.3.1-.4.3a.3.3 0 0 0 .3.3h18.5c.1 0 .2 0 .2-.1a.2.2 0 0 0 .2-.2v-.2h-2.1z" opacity=".3"/><path d="m165.1 101c.2-2.1.5-4.3.7-6.4.1-.1 0-.2-.2-.2h-18.9q-.1 0-.3.3l-.4 3.9-.6 4.5c-.3 2.3-.5 4.5-.8 6.8a.2.2 0 0 0 .2.2h18.9c.2 0 .3-.1.3-.2.4-3 .7-6 1.1-8.9z" fill="#9ed6ea"/><path d="m158.5 94.4h-11.9c0 .2 0 .3-.1.4s-.3 2.4-.5 3.6h.1c.1 0 .1 0 .1-.1h18.9c.1 0 .2 0 .2-.1l.3-2a9.9 9.9 0 0 1 .2-1.7h-7.3zm6.8 3.6.2-1.2z" opacity=".1"/><path d="m160.3 88.1h-16.5c-.2 0-.4.1-.4.3a.3.3 0 0 0 .3.3h18.7a.4.4 0 0 0 .1-.3v-.2h-2.2z" opacity=".3"/><path d="m163.8 79.3c.3-2.1.5-4.3.8-6.4a.2.2 0 0 0 -.2-.2h-18.9c-.2 0-.3.1-.3.2l-.5 3.9c-.2 1.6-.4 3.1-.5 4.6s-.6 4.4-.8 6.7c-.1.1 0 .2.1.2h19l.3-.2c.3-2.9.7-5.9 1-8.8z" fill="#9ed6ea"/><path d="m157.2 72.7h-11.9v.5c-.2 1.1-.3 2.3-.5 3.5h19.3c.1-.7.1-1.3.2-2a8.8 8.8 0 0 0 .2-1.7h-7.3z" opacity=".1"/></g><path d="m105.6 72.4h127.2a1.5 1.5 0 0 0 0-3h-127.2a1.5 1.5 0 0 0 0 3z" opacity=".05"/><path d="m212.2 136.8c-21.9.3-43.9.2-65.9.2a1.5 1.5 0 0 0 0 3c22 0 44 .1 65.9-.2 2-.1 2-3.1 0-3z" opacity=".05"/><path d="m88.8 69.4c-17.6.8-35.3.2-53 0-1.9-.1-1.9 2.9 0 3 17.7.2 35.4.8 53 0 2-.1 2-3.1 0-3z" opacity=".05"/><path d="m201.4 32-74-1a1.5 1.5 0 0 0 0 3l74 1a1.5 1.5 0 0 0 0-3z" opacity=".05"/><path d="m286.2 45.6-89.7.4a1.5 1.5 0 0 0 0 3l89.7-.4a1.5 1.5 0 0 0 0-3z" opacity=".05"/><path d="m130.7 136.8c-9.4.2-18.8 0-28.2.1a1.5 1.5 0 0 0 0 3c9.4-.1 18.8.1 28.2-.1a1.5 1.5 0 0 0 0-3z" opacity=".05"/><path d="m132.4 17.8c-33.1.5-66.1.6-99.2.1a1.5 1.5 0 0 0 0 3c33.1.5 66.1.4 99.2-.1a1.5 1.5 0 0 0 0-3z" opacity=".05"/><path d="m184 117.4h87.2a1.5 1.5 0 0 0 0-3h-87.2a1.5 1.5 0 0 0 0 3z" opacity=".05"/><path d="m58.6 106.7h127.2a1.5 1.5 0 0 0 0-3h-127.2a1.5 1.5 0 0 0 0 3z" opacity=".05"/></svg>