<svg width="1440" height="900" viewBox="0 0 1440 900" fill="none" xmlns="http://www.w3.org/2000/svg">
<path fill-rule="evenodd" clip-rule="evenodd" d="M1440 0H0V900H1440V0ZM68.166 422.478C59.3425 453.305 50.4804 484.267 70.3843 531.439C88.9437 575.425 81.7796 618.512 75.082 658.794C63.0024 731.444 52.4399 794.97 197.037 838.19C331.849 878.486 428.123 850.888 509.406 827.588C563.646 812.039 611.21 798.405 659.095 808.134C681.431 812.673 704.797 818.151 728.736 823.764C833.027 848.215 948.199 875.217 1036.55 838.19C1083.8 818.39 1126.79 815.95 1167.54 813.636C1220.48 810.631 1269.63 807.841 1319.39 767.47C1393.48 707.357 1385.97 668.461 1353.43 570.778C1335.88 518.095 1349.79 474.54 1362.24 435.537C1372.87 402.222 1382.44 372.228 1370.45 342.704C1344.42 278.613 1348.93 253.861 1381.47 194.19C1414.01 134.519 1426.02 74.4068 1370.45 48.7706C1343.48 36.3254 1308.48 35.9633 1273.25 35.5988C1235.91 35.2124 1198.3 34.8234 1169.71 20.0403C1132.28 0.686187 1090.07 21.2479 1046.93 42.27C1026.02 52.4543 1004.9 62.7466 983.987 68.6608C914.448 88.3274 849.402 78.6396 781.792 68.5697C711.303 58.0713 638.028 47.1577 553.968 68.6608C540.494 72.1074 527.002 75.8518 513.512 79.5954C442.343 99.3461 371.255 119.074 303.5 94.9219C93.1845 19.9512 11.5936 156.167 70.3843 326.349C84.2184 366.395 76.2083 394.38 68.166 422.478Z" fill="#E9EBF7"/>
<path fill-rule="evenodd" clip-rule="evenodd" d="M0 877.019V900H800.115C774.747 893.335 750.822 886.095 727.741 879.109C639.816 852.5 564.132 829.594 467.562 856.35C342.036 891.129 220.461 884.789 124.868 879.803C84.7193 877.709 49.1534 875.854 19.8031 877.386C12.6706 877.758 6.07888 877.621 0 877.019ZM1394.58 900H1440V860.869C1430.27 873.602 1418.11 885.022 1403.17 894.844C1400.43 896.645 1397.57 898.363 1394.58 900ZM1440 589.273V426.818C1425.54 473.546 1414.44 519.373 1435.6 577.012C1437.09 581.087 1438.56 585.175 1440 589.273ZM1078.28 0H242.447C275.284 5.0024 306.105 12.894 335.436 20.4041C390.437 34.4868 440.199 47.2282 488.196 37.0632C609.361 11.4023 699.679 28.0366 778.776 42.6041C864.218 58.3403 936.566 71.6649 1020.56 26.6595C1042.39 14.9599 1061.41 6.29663 1078.28 0ZM115.333 0H0V646.714C34.983 582.551 28.4812 515.845 22.0843 450.214C18.2131 410.497 14.3803 371.174 19.8031 333.047C27.9696 275.629 20.839 222.691 14.623 176.544C2.76814 88.5329 -5.75978 25.2213 101.5 2.63672C106.149 1.65779 110.76 0.780723 115.333 0Z" fill="#BFC7F2"/>
<path fill-rule="evenodd" clip-rule="evenodd" d="M495.672 0H374.653C379.888 1.57602 385.331 2.93433 391.027 4.03934C428.061 11.2228 461.503 7.11073 495.672 0Z" fill="#EDF2F1"/>
</svg>
