<svg fill="none" height="385" viewBox="0 0 448 385" width="448" xmlns="http://www.w3.org/2000/svg" xmlns:xlink="http://www.w3.org/1999/xlink"><filter id="a" color-interpolation-filters="sRGB" filterUnits="userSpaceOnUse" height="385" width="448" x="0" y="0"><feFlood flood-opacity="0" result="BackgroundImageFix"/><feColorMatrix in="SourceAlpha" result="hardAlpha" type="matrix" values="0 0 0 0 0 0 0 0 0 0 0 0 0 0 0 0 0 0 127 0"/><feOffset/><feGaussianBlur stdDeviation="62"/><feComposite in2="hardAlpha" operator="out"/><feColorMatrix type="matrix" values="0 0 0 0 0 0 0 0 0 0 0 0 0 0 0 0 0 0 0.5 0"/><feBlend in2="BackgroundImageFix" mode="normal" result="effect1_dropShadow_2249_4687"/><feBlend in="SourceGraphic" in2="effect1_dropShadow_2249_4687" mode="normal" result="shape"/></filter><g filter="url(#a)"><path d="m304.182 188.861c5.282 1.638 9.906 4.976 13.873 10.013 3.966 5.036 5.948 11.712 5.945 20.025 0 7.31-1.195 13.452-3.586 18.429-2.193 4.724-5.462 8.868-9.546 12.097-4.028 3.116-8.655 5.367-13.591 6.613-5.142 1.335-10.433 2.008-15.745 2.002h-51.168v-133.807h46.45c4.743.029 9.476.44 14.154 1.228 4.888.769 9.591 2.435 13.873 4.916 4.212 2.451 7.697 6.041 10.454 10.768 2.758 4.727 4.144 10.935 4.16 18.624 0 7.182-1.416 13.099-4.246 17.75-2.695 4.543-6.568 8.271-11.209 10.787zm-35.864-30.808v17.609h6.796c2.639 0 4.747-.725 6.322-2.175 1.576-1.451 2.362-3.813 2.359-7.087 0-2.77-.818-4.848-2.454-6.235s-3.712-2.08-6.227-2.08zm0 46.683v19.088h7.173c2.891 0 5.25-.842 7.077-2.526s2.737-3.96 2.727-6.827c0-3.368-1.006-5.832-3.018-7.391-1.939-1.537-4.345-2.363-6.818-2.34zm-98.863-80.503c0-2.426 0 14.928 0 14.928 3.722 0 5.5 3.39 5.5 6.322 0 8.165-2.478 6.854-2.478 9.334.015.487.142.963.369 1.393.228.43.551.802.945 1.088 1.891-1.024 2.123.491 2.768.582 1.018.146 3.35 0 3.496 2.481.145 2.48-.878 12.252-.878 13.713s-.291 3.937-.727 3.937c-.291 1.606-1.018 10.65-1.018 11.833 0 1.607-.664.883-.873 2.772-.145 1.315-.454 2.917-.295 3.791s.454.878.454 2.189c0 1.752-.732 1.898-.732 3.063 0 2.335-.581 3.796-.581 4.67s-.105 2.412-.105 2.412c.449.333.874.696 1.273 1.088.454.455.272 1.083.272 1.82s-.059 5.994 0 6.768c.046.628-.454 1.629.191 1.884 2.996 1.161 6.714 2.317 6.819 6.914.045 2.366.627 7.828-.241 11.018-.869 3.191-2.9 5.029-5.65 4.934-2.75-.096-5.291-.492-8.459-.487-3.169.004-5.864.387-8.637.487s-4.782-1.743-5.65-4.934c-.868-3.19-.291-8.647-.241-11.018.096-4.597 3.814-5.753 6.818-6.914.655-.255.141-1.256.191-1.884.059-.774 0-6.04 0-6.768 0-.241 0-.455 0-.687l-5.513 2.08-32.473 14.71c1.091 4.704 2.933 9.2 5.455 13.317 2.473 4.055 5.639 7.643 9.354 10.6 3.713 2.954 7.887 5.276 12.355 6.872 4.668 1.663 9.591 2.495 14.545 2.458 7.827 0 14.55-1.165 20.168-3.496 5.344-2.137 10.086-5.545 13.818-9.93 3.6-4.279 6.255-9.473 7.964-15.584 1.768-6.62 2.627-13.451 2.555-20.303v-87.453zm-5.455 101.243 1.114 1.365h8.886l1.114-1.365c.641 0 3.841-.341 3.968 2.403.045.91.182 2.649.132 4.21-.123 4.169.213 5.662-2.073 6.044-1.146.187-1.746.792-2.546-.551-.231-.5-3.6-.605-5.059-.605s-4.822.105-5.054.605c-.805 1.343-1.4.738-2.546.551-2.272-.382-1.95-1.875-2.077-6.044-.045-1.561.091-3.318.132-4.21.145-2.744 3.341-2.421 4.009-2.403zm10.986-79.993c.015 1.265-.067 2.529-.245 3.782-.165-1.539-.455-3.061-.868-4.552-1.778-1.074-6.932-1.078-8.768 0-.415 1.491-.707 3.013-.873 4.552-.176-1.253-.257-2.517-.241-3.782 0-1.593 1.627-4.62 5.495-4.661 3.305 0 5.478 2.449 5.478 4.661z" fill="#fff"/></g></svg>