<svg width="128" height="122" viewBox="0 0 128 122" fill="none" xmlns="http://www.w3.org/2000/svg">
<rect x="16" y="9" width="96" height="96" rx="32" fill="#585858"/>
<g filter="url(#filter0_d_1676_3981)">
<path fill-rule="evenodd" clip-rule="evenodd" d="M32.3176 48.1861L45.3234 30.5824C45.4564 30.4028 45.6253 30.2526 45.8194 30.1412C46.0135 30.0298 46.2286 29.9597 46.4512 29.9352L63.822 28.0098C63.9406 27.9967 64.0603 27.9967 64.179 28.0098L81.5498 29.9332C81.7724 29.9576 81.9875 30.0278 82.1816 30.1391C82.3756 30.2505 82.5445 30.4008 82.6775 30.5804L95.6854 48.1861C95.903 48.4817 96.0134 48.8422 95.9987 49.2085C95.984 49.5749 95.8449 49.9253 95.6042 50.2026L64.9234 85.5799C64.8091 85.7117 64.6677 85.8175 64.5088 85.89C64.3499 85.9625 64.1772 86 64.0025 86C63.8278 86 63.6551 85.9625 63.4962 85.89C63.3373 85.8175 63.1959 85.7117 63.0816 85.5799L32.3947 50.2026C32.1543 49.9251 32.0156 49.5745 32.0012 49.2082C31.9869 48.8418 32.0977 48.4815 32.3156 48.1861H32.3176ZM68.475 33.2137L80.7405 44.7661C80.8593 44.8784 81.0095 44.9522 81.1712 44.9778C81.3328 45.0034 81.4985 44.9797 81.6464 44.9096C81.7943 44.8396 81.9175 44.7266 81.9998 44.5855C82.0821 44.4444 82.1197 44.2817 82.1076 44.1189L81.5193 35.9198C81.5111 35.8195 81.5406 35.7197 81.6022 35.6399C81.6638 35.5602 81.753 35.5062 81.8523 35.4885C81.9517 35.4708 82.0541 35.4907 82.1396 35.5443C82.225 35.5978 82.2874 35.6812 82.3145 35.7782L85.0041 45.1666C85.0946 45.4827 85.261 45.7721 85.489 46.0096C85.717 46.2471 85.9996 46.4256 86.3123 46.5297L92.0526 48.4369C92.1441 48.4669 92.222 48.5285 92.2722 48.6105C92.3224 48.6926 92.3417 48.7898 92.3265 48.8847C92.3114 48.9796 92.2629 49.0661 92.1896 49.1286C92.1164 49.191 92.0232 49.2255 91.9268 49.2257H86.4097C86.0687 49.2259 85.7333 49.3118 85.4344 49.4755C85.1356 49.6391 84.8829 49.8753 84.6998 50.1621L69.6616 73.7241C69.5774 73.8526 69.4475 73.9446 69.2981 73.9814C69.1486 74.0183 68.9907 73.9973 68.8562 73.9226C68.7217 73.848 68.6205 73.7253 68.5731 73.5792C68.5257 73.4331 68.5356 73.2746 68.6008 73.1355L79.3794 50.9691C79.4695 50.7841 79.5109 50.5792 79.4998 50.3738C79.4887 50.1685 79.4254 49.9693 79.3159 49.795C79.2064 49.6207 79.0543 49.477 78.8738 49.3774C78.6933 49.2778 78.4904 49.2256 78.2841 49.2257H49.7168C49.5105 49.2256 49.3076 49.2778 49.1271 49.3774C48.9467 49.477 48.7945 49.6207 48.685 49.795C48.5755 49.9693 48.5122 50.1685 48.5011 50.3738C48.49 50.5792 48.5314 50.7841 48.6215 50.9691L59.4002 73.1355C59.4679 73.2749 59.4796 73.4347 59.433 73.5824C59.3863 73.7301 59.2848 73.8544 59.1492 73.9299C59.0136 74.0054 58.8542 74.0263 58.7037 73.9884C58.5531 73.9505 58.4228 73.8567 58.3393 73.7261L43.3011 50.1641C43.1181 49.8767 42.8652 49.6399 42.5659 49.4759C42.2667 49.3118 41.9307 49.2258 41.5892 49.2257H35.9037C35.8073 49.2255 35.7142 49.191 35.6409 49.1286C35.5677 49.0661 35.5191 48.9796 35.504 48.8847C35.4889 48.7898 35.5081 48.6926 35.5583 48.6105C35.6085 48.5285 35.6864 48.4669 35.778 48.4369L41.6764 46.5257C41.9925 46.423 42.2784 46.2444 42.5091 46.0057C42.7397 45.7669 42.9079 45.4753 42.9989 45.1565L45.6865 35.7782C45.7136 35.6812 45.7759 35.5978 45.8614 35.5443C45.9468 35.4907 46.0492 35.4708 46.1486 35.4885C46.248 35.5062 46.3371 35.5602 46.3987 35.6399C46.4603 35.7197 46.4898 35.8195 46.4816 35.9198L45.8934 44.1189C45.8812 44.2817 45.9188 44.4444 46.0011 44.5855C46.0834 44.7266 46.2066 44.8396 46.3545 44.9096C46.5024 44.9797 46.6681 45.0034 46.8298 44.9778C46.9915 44.9522 47.1416 44.8784 47.2605 44.7661L59.5259 33.2137C59.6 33.1391 59.7003 33.0961 59.8056 33.0939C59.9109 33.0917 60.013 33.1304 60.0902 33.2019C60.1673 33.2733 60.2136 33.3719 60.2193 33.4768C60.2249 33.5816 60.1894 33.6846 60.1202 33.7638L51.8912 43.8621C51.7947 43.9807 51.7338 44.1241 51.7157 44.2758C51.6975 44.4275 51.7228 44.5812 51.7886 44.7191C51.8543 44.8571 51.9579 44.9736 52.0874 45.0553C52.2168 45.137 52.3668 45.1805 52.52 45.1807H75.4809C75.6341 45.1805 75.7841 45.137 75.9136 45.0553C76.043 44.9736 76.1466 44.8571 76.2124 44.7191C76.2782 44.5812 76.3034 44.4275 76.2853 44.2758C76.2671 44.1241 76.2062 43.9807 76.1097 43.8621L67.8807 33.7638C67.8116 33.6846 67.7761 33.5816 67.7817 33.4768C67.7873 33.3719 67.8336 33.2733 67.9108 33.2019C67.988 33.1304 68.09 33.0917 68.1953 33.0939C68.3006 33.0961 68.4009 33.1391 68.475 33.2137V33.2137Z" fill="#F3D477"/>
</g>
<defs>
<filter id="filter0_d_1676_3981" x="0" y="0" width="128" height="122" filterUnits="userSpaceOnUse" color-interpolation-filters="sRGB">
<feFlood flood-opacity="0" result="BackgroundImageFix"/>
<feColorMatrix in="SourceAlpha" type="matrix" values="0 0 0 0 0 0 0 0 0 0 0 0 0 0 0 0 0 0 127 0" result="hardAlpha"/>
<feOffset dy="4"/>
<feGaussianBlur stdDeviation="16"/>
<feComposite in2="hardAlpha" operator="out"/>
<feColorMatrix type="matrix" values="0 0 0 0 0.245833 0 0 0 0 0.192569 0 0 0 0 0.192569 0 0 0 0.25 0"/>
<feBlend mode="darken" in2="BackgroundImageFix" result="effect1_dropShadow_1676_3981"/>
<feBlend mode="normal" in="SourceGraphic" in2="effect1_dropShadow_1676_3981" result="shape"/>
</filter>
</defs>
</svg>
