<svg width="1922" height="1082" viewBox="0 0 1922 1082" fill="none" xmlns="http://www.w3.org/2000/svg">
<rect x="1" y="1" width="120" height="50" stroke="black" stroke-opacity="0.1" stroke-width="2"/>
<rect x="121" y="1" width="120" height="50" stroke="black" stroke-opacity="0.1" stroke-width="2"/>
<rect x="241" y="1" width="120" height="50" stroke="black" stroke-opacity="0.1" stroke-width="2"/>
<rect x="361" y="1" width="120" height="50" stroke="black" stroke-opacity="0.1" stroke-width="2"/>
<rect x="481" y="1" width="120" height="50" stroke="black" stroke-opacity="0.1" stroke-width="2"/>
<rect x="601" y="1" width="120" height="50" stroke="black" stroke-opacity="0.1" stroke-width="2"/>
<rect x="721" y="1" width="120" height="50" stroke="black" stroke-opacity="0.1" stroke-width="2"/>
<rect x="841" y="1" width="120" height="50" stroke="black" stroke-opacity="0.1" stroke-width="2"/>
<rect x="961" y="1" width="120" height="50" stroke="black" stroke-opacity="0.1" stroke-width="2"/>
<rect x="1081" y="1" width="120" height="50" stroke="black" stroke-opacity="0.1" stroke-width="2"/>
<rect x="1201" y="1" width="120" height="50" stroke="black" stroke-opacity="0.1" stroke-width="2"/>
<rect x="1321" y="1" width="120" height="50" stroke="black" stroke-opacity="0.1" stroke-width="2"/>
<rect x="1441" y="1" width="120" height="50" stroke="black" stroke-opacity="0.1" stroke-width="2"/>
<rect x="1561" y="1" width="120" height="50" stroke="black" stroke-opacity="0.1" stroke-width="2"/>
<rect x="1681" y="1" width="120" height="50" stroke="black" stroke-opacity="0.1" stroke-width="2"/>
<rect x="1801" y="1" width="120" height="50" stroke="black" stroke-opacity="0.1" stroke-width="2"/>
<rect x="721" y="51" width="120" height="50" stroke="black" stroke-opacity="0.1" stroke-width="2"/>
<rect x="841" y="51" width="120" height="50" stroke="black" stroke-opacity="0.1" stroke-width="2"/>
<rect x="961" y="51" width="120" height="50" stroke="black" stroke-opacity="0.1" stroke-width="2"/>
<rect x="1081" y="51" width="120" height="50" stroke="black" stroke-opacity="0.1" stroke-width="2"/>
<rect x="1201" y="51" width="120" height="50" stroke="black" stroke-opacity="0.1" stroke-width="2"/>
<rect x="1321" y="51" width="120" height="50" stroke="black" stroke-opacity="0.1" stroke-width="2"/>
<rect x="1" y="51" width="120" height="50" stroke="black" stroke-opacity="0.1" stroke-width="2"/>
<rect x="121" y="51" width="120" height="50" stroke="black" stroke-opacity="0.1" stroke-width="2"/>
<rect x="241" y="51" width="120" height="50" stroke="black" stroke-opacity="0.1" stroke-width="2"/>
<rect x="361" y="51" width="120" height="50" stroke="black" stroke-opacity="0.1" stroke-width="2"/>
<rect x="481" y="51" width="120" height="50" stroke="black" stroke-opacity="0.1" stroke-width="2"/>
<rect x="601" y="51" width="120" height="50" stroke="black" stroke-opacity="0.1" stroke-width="2"/>
<rect x="1441" y="51" width="120" height="50" stroke="black" stroke-opacity="0.1" stroke-width="2"/>
<rect x="1561" y="51" width="120" height="50" stroke="black" stroke-opacity="0.1" stroke-width="2"/>
<rect x="1681" y="51" width="120" height="50" stroke="black" stroke-opacity="0.1" stroke-width="2"/>
<rect x="1801" y="51" width="120" height="50" stroke="black" stroke-opacity="0.1" stroke-width="2"/>
<rect x="1" y="1031" width="120" height="50" stroke="black" stroke-opacity="0.1" stroke-width="2"/>
<rect x="121" y="1031" width="120" height="50" stroke="black" stroke-opacity="0.1" stroke-width="2"/>
<rect x="241" y="1031" width="120" height="50" stroke="black" stroke-opacity="0.1" stroke-width="2"/>
<rect x="361" y="1031" width="120" height="50" stroke="black" stroke-opacity="0.1" stroke-width="2"/>
<rect x="481" y="1031" width="120" height="50" stroke="black" stroke-opacity="0.1" stroke-width="2"/>
<rect x="601" y="1031" width="120" height="50" stroke="black" stroke-opacity="0.1" stroke-width="2"/>
<rect x="721" y="1031" width="120" height="50" stroke="black" stroke-opacity="0.1" stroke-width="2"/>
<rect x="841" y="1031" width="120" height="50" stroke="black" stroke-opacity="0.1" stroke-width="2"/>
<rect x="1441" y="1031" width="120" height="50" stroke="black" stroke-opacity="0.1" stroke-width="2"/>
<rect x="961" y="1031" width="120" height="50" stroke="black" stroke-opacity="0.1" stroke-width="2"/>
<rect x="1561" y="1031" width="120" height="50" stroke="black" stroke-opacity="0.1" stroke-width="2"/>
<rect x="1081" y="1031" width="120" height="50" stroke="black" stroke-opacity="0.1" stroke-width="2"/>
<rect x="1681" y="1031" width="120" height="50" stroke="black" stroke-opacity="0.1" stroke-width="2"/>
<rect x="1201" y="1031" width="120" height="50" stroke="black" stroke-opacity="0.1" stroke-width="2"/>
<rect x="1801" y="1031" width="120" height="50" stroke="black" stroke-opacity="0.1" stroke-width="2"/>
<rect x="1321" y="1031" width="120" height="50" stroke="black" stroke-opacity="0.1" stroke-width="2"/>
<rect x="1" y="981" width="120" height="50" stroke="black" stroke-opacity="0.1" stroke-width="2"/>
<rect x="121" y="981" width="120" height="50" stroke="black" stroke-opacity="0.1" stroke-width="2"/>
<rect x="241" y="981" width="120" height="50" stroke="black" stroke-opacity="0.1" stroke-width="2"/>
<rect x="361" y="981" width="120" height="50" stroke="black" stroke-opacity="0.1" stroke-width="2"/>
<rect x="481" y="981" width="120" height="50" stroke="black" stroke-opacity="0.1" stroke-width="2"/>
<rect x="601" y="981" width="120" height="50" stroke="black" stroke-opacity="0.1" stroke-width="2"/>
<rect x="721" y="981" width="120" height="50" stroke="black" stroke-opacity="0.1" stroke-width="2"/>
<rect x="841" y="981" width="120" height="50" stroke="black" stroke-opacity="0.1" stroke-width="2"/>
<rect x="1441" y="981" width="120" height="50" stroke="black" stroke-opacity="0.1" stroke-width="2"/>
<rect x="961" y="981" width="120" height="50" stroke="black" stroke-opacity="0.1" stroke-width="2"/>
<rect x="1561" y="981" width="120" height="50" stroke="black" stroke-opacity="0.1" stroke-width="2"/>
<rect x="1081" y="981" width="120" height="50" stroke="black" stroke-opacity="0.1" stroke-width="2"/>
<rect x="1681" y="981" width="120" height="50" stroke="black" stroke-opacity="0.1" stroke-width="2"/>
<rect x="1201" y="981" width="120" height="50" stroke="black" stroke-opacity="0.1" stroke-width="2"/>
<rect x="1801" y="981" width="120" height="50" stroke="black" stroke-opacity="0.1" stroke-width="2"/>
<rect x="1321" y="981" width="120" height="50" stroke="black" stroke-opacity="0.1" stroke-width="2"/>
</svg>
