<svg width="264" height="264" viewBox="0 0 264 264" fill="none" xmlns="http://www.w3.org/2000/svg">
<g filter="url(#filter0_d_1669_3049)">
<path d="M50.9081 150.002C50.9137 150.023 50.9193 150.043 50.9249 150.064L63.982 150.105C65.3627 150.109 66.4784 151.232 66.4738 152.613C66.4717 153.274 66.2078 153.907 65.7399 154.374L56.0855 164.009C69.5694 192.384 98.4938 212 132 212C170.78 212 203.423 185.722 213.092 150.002L229.575 150.002C219.551 194.646 179.671 228 132 228C94.1188 228 61.157 206.938 44.1867 175.887L36.3069 183.75C35.3297 184.726 33.7467 184.724 32.7713 183.747C32.3043 183.279 32.0416 182.645 32.0407 181.984L32 152.512C31.9981 151.154 33.0791 150.047 34.4281 150.009C34.4267 150.01 34.4258 150.006 34.4249 150.002L50.9081 150.002ZM159.351 94C163.024 94 166.001 96.9773 166.001 100.65V169.35C166.001 173.023 163.024 176 159.351 176H156.651C152.978 176 150.001 173.023 150.001 169.35L150.002 164.716C142.635 171.367 133.686 176 125.313 176C102.355 176 83.9983 157.644 83.9983 135.313C83.9983 112.356 102.355 94 125.313 94C133.686 94 142.635 98.6327 150.002 105.338L150.001 100.65C150.001 96.9773 152.978 94 156.651 94H159.351ZM126.648 112C112.745 112 101.999 122.745 101.999 136C101.999 149.255 112.745 160 126.648 160C139.255 160 150.001 149.255 150.001 136C150.001 122.745 139.255 112 126.648 112ZM132 28C169.892 28 202.861 49.0735 219.828 80.1394L227.69 72.2665C228.666 71.2896 230.249 71.2885 231.226 72.2641C231.695 72.7322 231.958 73.3672 231.959 74.0296L232 103.497C232.002 104.769 231.052 105.822 229.822 105.979L229.576 106L200.032 106C198.651 106 197.532 104.881 197.532 103.5C197.532 102.838 197.795 102.202 198.263 101.733L207.94 92.0444C194.467 63.6411 165.527 44 132 44C93.2191 44 60.576 70.2786 50.9076 106L34.4244 106C44.4477 61.3553 84.3284 28 132 28ZM158.626 66C163.524 66 168.001 70.4772 168.001 76.625C168.001 81.5228 163.524 86 158.626 86C152.478 86 148.001 81.5228 148.001 76.625C148.001 70.4772 152.478 66 158.626 66Z" fill="url(#paint0_linear_1669_3049)"/>
</g>
<defs>
<filter id="filter0_d_1669_3049" x="0" y="0" width="264" height="264" filterUnits="userSpaceOnUse" color-interpolation-filters="sRGB">
<feFlood flood-opacity="0" result="BackgroundImageFix"/>
<feColorMatrix in="SourceAlpha" type="matrix" values="0 0 0 0 0 0 0 0 0 0 0 0 0 0 0 0 0 0 127 0" result="hardAlpha"/>
<feOffset dy="4"/>
<feGaussianBlur stdDeviation="16"/>
<feComposite in2="hardAlpha" operator="out"/>
<feColorMatrix type="matrix" values="0 0 0 0 0.247059 0 0 0 0 0.192157 0 0 0 0 0.192157 0 0 0 0.25 0"/>
<feBlend mode="normal" in2="BackgroundImageFix" result="effect1_dropShadow_1669_3049"/>
<feBlend mode="normal" in="SourceGraphic" in2="effect1_dropShadow_1669_3049" result="shape"/>
</filter>
<linearGradient id="paint0_linear_1669_3049" x1="32" y1="128" x2="232" y2="128" gradientUnits="userSpaceOnUse">
<stop stop-color="#FAF7D4"/>
<stop offset="1" stop-color="#B4F3D5"/>
</linearGradient>
</defs>
</svg>
