<svg xmlns="http://www.w3.org/2000/svg" xmlns:xlink="http://www.w3.org/1999/xlink" width="480" height="480" viewBox="0 0 560 260" preserveAspectRatio="xMidYMid" id="illustration-ad-hoc-meeting-sad-paper" style="background-color: #FFF">

    <!--animation-->
    <style>
        @keyframes blinking-eye {
            from, to {
                transform-origin: 264px 156px;
            }
            from, to, 6%, 12%, 18% {
                transform: scaleY(1);
            }
            3%, 9%, 15% {
                transform: scaleY(0);
            }
        }

        #eye-1 {
            animation: 5s .9s blinking-eye infinite;
        }
        #eye-2 {
            animation: 5s .9s blinking-eye infinite;
        }

        @keyframes unsmiling {
            from, to, 12% {
                transform-origin: 278px 2px;
            }
            from, to {
                transform: translateY(0);
            }
            3%, 9% {
                transform: translateY(-4px);
            }
            6%, 12% {
                transform: translateY(-2px);
            }
        }

        #unsmile {
            animation: 5s 1.2s unsmiling infinite;
        }

        @keyframes pop {
            from {
                transform: scale(0) rotate(-30deg);
            }

            80% {
                transform: scale(1.2) rotate(0deg);
            }

            to {
                transform: scale(1) rotate(0deg);
            }
        }

        #intero-1 {
            animation: .3s pop 1s linear 1 both;
            animation-timing-function: cubic-bezier(0.455, 0.03, 0.515, 0.955);
            transform-origin: 132px 113px;
        }

        #uh-oh {
            animation: .3s pop 1.2s linear 1 both;
            animation-timing-function: cubic-bezier(0.455, 0.03, 0.515, 0.955);
            transform-origin: 156px 40px;
        }

        #intero-2 {
            animation: .3s pop 1.1s linear 1 both;
            animation-timing-function: cubic-bezier(0.455, 0.03, 0.515, 0.955);
            transform-origin: 391px 67px;
        }
    </style>

    <!--all the maskes-->
    <defs>
        <clipPath id="clip-path">
            <path d="M354.7,181.7c2-10,5-21,0-31-7.8-13.6-16.5-26.2-22.4-40.6-15.4-1.2-30.7-3.6-46.5-2.2,1.5,4.4,3.3,9.2,8.9,10.8-6,3-15,7-16,11s-4.1,8.2-6.4,11.1c18.8,4.7,39.5-3,56.4,6.9,2,2-3,9-3,15,2-1,3,1,5,1-.9,5.7-5.1,10.9-6,17,9,1.8,20.3,8.4,17.5,17.7a20.4,20.4,0,0,1,6.4,7.5,26.8,26.8,0,0,1,6.5-5c4-2.3,8.5-4.9,9.7-9.4s-.3-8.2,1.6-11.6a8.2,8.2,0,0,1,1.9-2.2C363.8,179.4,359.8,182.4,354.7,181.7Z" fill="#e0e0e0"/>
        </clipPath>
        <clipPath id="clip-path-2">
            <path d="M317.7,196.7a9,9,0,0,0,1-5c-7,12-13,23-27,31l-1.6,4h.6a15.6,15.6,0,0,1-2.3,7.8l26.1,3h1.4a3,3,0,0,0,1.4-1.1c7.4-7.5,15.4-14.8,25.2-18.7a4.4,4.4,0,0,0,1.5-.8,3.3,3.3,0,0,0,.7-1.3,21.2,21.2,0,0,0,1.3-5.4v.6a9.4,9.4,0,0,1,2.6-4.9C343.3,195,328.8,191.1,317.7,196.7Z" fill="#e3e3e3"/>
        </clipPath>
        <clipPath id="clip-path-3">
            <path d="M325.7,162.7c0-6,5-13,3-15-16.9-9.9-37.6-2.2-56.4-6.9-2.4,2.9-5.2,4.4-8.6,2.9-9.7-3.9-13.8-17.1-21.3-26.1-8.9-3.8-19.8,4.1-25.7,10.1-5,4-3,15-1,24v2a4.1,4.1,0,0,0-2,1.2c4.8,2,10.6,0,15,1.8-3.1,7.1-9.1,12-15.7,16.3a44.9,44.9,0,0,0-1.3,4.7c14,1,28-5,42-6,0,4.5,1.1,8.5,1.2,12.8,3.9,3.9,5.6,8.9,11.3,7.6l-1.5-.4c19-2,37,0,56-5,1,0,4-3,4-6h0c.9-6.1,5.1-11.3,6-17C328.7,163.7,327.7,161.7,325.7,162.7Z" fill="#e6e6e6"/>
        </clipPath>
        <clipPath id="clip-path-4">
            <path d="M335.4,109.9a6.9,6.9,0,0,1,.9-3c1.4-2.8,2.7-5.7,4.1-8.6,5-10.3,10-20.7,16-30.5l.2-1.4c-3-2.2-6.2-4.2-9.4-6.2l-15.5-9.8c-2.2-1.4-4.3-2.7-6.6-3.9a78.3,78.3,0,0,0-7.8-3.6l-1.3-.5c-8.5,2.2-17.2,5.3-17.7,14.6,10.7,6,19.6,14.7,32.4,16.7C329.7,85.8,326.2,101.3,335.4,109.9Z" fill="#ebebeb"/>
        </clipPath>
        <clipPath id="clip-path-5">
            <path d="M316,42.4c-6.4-2.8-11.2-6.1-17.9-8.5L295,32.3a21.4,21.4,0,0,0-4.3-2.1c.6,9.7-2.7,17.1-7.9,23.5,5.9,2,9.9,6,15.9,8C296.2,48.7,306.2,44.9,316,42.4Z" fill="#dedede"/>
        </clipPath>
        <clipPath id="clip-path-6">
            <path d="M286.7,226.7c-11-8-19-26-34-23-1-9-5-18-4-28-11,0-23,3-33,7-.1,0-.2,0-.2.1a8.5,8.5,0,0,1,3.9,4.2c1.9,1.9,2.8,4.3,1.3,6.7-8,7-28,0-24,15l-.9-.2c9.9,11,20.4,20.8,30.9,32.2a40.3,40.3,0,0,1,1.4,4.6l3.5,2.8a20.3,20.3,0,0,0,4.3,2.9c3.7,1.8,7.9,1.6,12,1.4s7.4-.5,10.4-2.5,4.7-5,7-7.7a24.9,24.9,0,0,1,19.9-8.6l1,.6,2.2.3a15.6,15.6,0,0,0,2.3-7.8Z" fill="#ebebeb"/>
        </clipPath>
        <clipPath id="clip-path-7">
            <path d="M196.7,208.7c-4-15,16-8,24-15,1.5-2.4.6-4.8-1.3-6.7l.3.7c-12-8-24,13-30,9l-1.2-1c-3.2,3-8.3,3.3-12.8,4.2l-3.5,4.1C180.6,201.3,187.9,206.9,196.7,208.7Z" fill="#e0e0e0"/>
        </clipPath>
        <clipPath id="clip-path-8">
            <path d="M195.8,208.5c-8.4-2-15.5-7.1-23.6-4.5l-6.3,7.5-.3.3c-1.9.6-2.5,3.3-1.6,5.1s3,2.9,4.8,3.8a184.5,184.5,0,0,0,45.7,15.7,17.3,17.3,0,0,1,3.7,1.1l1.6,1.2,8.3,6.6a40.3,40.3,0,0,0-1.4-4.6C216.2,229.3,205.7,219.5,195.8,208.5Z" fill="#c2c2c2"/>
        </clipPath>
        <clipPath id="clip-path-9">
            <path d="M194.7,185.7c11-10,28-15,34-29-4.4-1.8-10.2.2-15-1.8-1.7,1.6-2.8,4.3-5,5.8v1c-8-16-8-34-13-50h19c.8-2.6-.5-6.7,2.3-9H197c0,.3-.4.5-.7.7-13.5,6.7-26,15.1-38.5,23.6-.4.3-.8.5-.9,1a1.7,1.7,0,0,0,.1,1,27.9,27.9,0,0,0,13.8,16.7,48.7,48.7,0,0,1,6,3.1,18.7,18.7,0,0,1,4.6,4.7C198.3,150.4,186.8,174.8,194.7,185.7Z" fill="#ccc"/>
        </clipPath>
        <clipPath id="clip-path-10">
            <path d="M273.7,109.7c21.2-4.7,41.5-.8,61.8.6h0a.8.8,0,0,1-.1-.4c-9.2-8.6-5.7-24.1-4.7-36.2C317.9,71.7,309,63,298.3,57a15.7,15.7,0,0,0,.4,4.7c-6-2-10-6-15.9-8-8.4,10.6-21.9,18.5-31.1,29-8.3,4.9-19.2,6.5-26.7,13-.9,2.1-1.9,4.2-3,6.4C236.8,107,256.2,113.5,273.7,109.7Z" fill="#f5f5f5"/>
        </clipPath>
        <clipPath id="clip-path-11">
            <path d="M290.7,30.2l-.5-.2C271,48.9,249.2,65.3,231,86.2l-.3.5-1.1-.4a51.1,51.1,0,0,0-4.6,9.4c7.5-6.5,18.4-8.1,26.7-13C266.6,65.8,292.3,55.8,290.7,30.2Z" fill="#e6e6e6"/>
        </clipPath>
        <clipPath id="clip-path-12">
            <path d="M290.2,30a9.2,9.2,0,0,0-2.9-.3c-2.1.1-4.1,1.2-6,2.3-15.8,9.1-31.6,18.2-46.5,28.6L229,64.8c-1.8,1.2-3.6,3.2-5.5,4-3.7,1.6-6.7,3.1-10.8,3s-7.8,2.6-13.4,5.9c11.7.2,20.6,6,31.4,9C248.9,65.5,270.8,49,290.2,30Z" fill="none"/>
        </clipPath>
        <clipPath id="clip-path-13">
            <path d="M290.2,30a9.2,9.2,0,0,0-2.9-.3c-2.1.1-4.1,1.2-6,2.3-15.8,9.1-31.6,18.2-46.5,28.6L229,64.8c-1.8,1.2-3.6,3.2-5.5,4-3.7,1.6-6.7,3.1-10.8,3s-7.8,2.6-13.4,5.9c11.7.2,20.6,6,31.4,9C248.9,65.5,270.8,49,290.2,30Z" fill="#ebebeb"/>
        </clipPath>
        <clipPath id="clip-path-14">
            <path d="M229.6,86.3c-10.3-3-19-8.4-30.3-8.6h0c-7,2.1-17.7,9.7-17.7,9.7a6.4,6.4,0,0,0-2.6,1,2.3,2.3,0,0,0-1,2.3,2.9,2.9,0,0,0,1.1,1.6c5,4.4,11.6,6.4,17.4,9.6.2.2.5.3.5.5s0,.2,0,.3h24.7C224.9,97,226.1,91.4,229.6,86.3Z" fill="none"/>
        </clipPath>
        <clipPath id="clip-path-15">
            <path d="M229.6,86.3c-10.3-3-19-8.4-30.3-8.6h0c-7,2.1-17.7,9.7-17.7,9.7a6.4,6.4,0,0,0-2.6,1,2.3,2.3,0,0,0-1,2.3,2.9,2.9,0,0,0,1.1,1.6c5,4.4,11.6,6.4,17.4,9.6.2.2.5.3.5.5s0,.2,0,.3h24.7C224.9,97,226.1,91.4,229.6,86.3Z" fill="#d9d9d9"/>
        </clipPath>
        <clipPath id="clip-path-16">
            <path d="M263.7,143.7c7,3,11-6,15-14,1-4,10-8,16-11-5.6-1.6-7.4-6.4-8.9-10.8a84.2,84.2,0,0,0-12.1,1.8,62.2,62.2,0,0,1-20.2.6c-3.6,2.3-6.7,5.3-10.8,7.4h-.3C249.9,126.6,254,139.8,263.7,143.7Z" fill="#dbdbdb"/>
        </clipPath>
        <clipPath id="clip-path-17">
            <path d="M214.7,111.7h-19c5,16,5,34,13,50v-1c3-2,4-6,7-7v-2c-2-9-4-20,1-24,6-6,17-14,26-10,4.1-2.1,7.2-5.1,10.8-7.4-11.3-1.4-22.3-5.1-31.5-8.2l-.3.6H217C214.2,105,215.5,109.1,214.7,111.7Z" fill="#f2f2f2"/>
        </clipPath>
        <clipPath id="clip-path-18">
            <path d="M381.5,171.7a16.3,16.3,0,0,0,3.1-4.2c-5.9-6.2-11.4-13.2-17.4-19.4h.1c-8.7-12.5-17.6-25.2-29.4-34.7a10.5,10.5,0,0,1-1.9-1.7c-.2,0-.3-.1-.3-.7a1.4,1.4,0,0,1-.2-.6l-3.2-.2c5.9,14.4,14.6,27,22.4,40.6,5,10,2,21,0,31,5.1.7,9.1-2.3,13.6-4a19.2,19.2,0,0,1,5.2-2.5C376.3,174.4,379.3,173.7,381.5,171.7Z" fill="#ebebeb"/>
        </clipPath>
        <clipPath id="clip-path-19">
            <path d="M324.7,180.7c0,3-3,6-4,6-19,5-37,3-56,5,15.4,3.8,29.1,13.3,45.3,13.9,3.1-4.4,5.8-9.1,8.7-13.9a9,9,0,0,1-1,5,24.4,24.4,0,0,1,24.5,1.7C345.1,189.1,333.6,182.5,324.7,180.7Z" fill="none"/>
        </clipPath>
        <clipPath id="clip-path-20">
            <path d="M324.7,180.7c0,3-3,6-4,6-19,5-37,3-56,5,15.4,3.8,29.1,13.3,45.3,13.9,3.1-4.4,5.8-9.1,8.7-13.9a9,9,0,0,1-1,5,24.4,24.4,0,0,1,24.5,1.7C345.1,189.1,333.6,182.5,324.7,180.7Z" fill="#b0b0b0"/>
        </clipPath>
        <clipPath id="clip-path-21">
            <path d="M254.9,184.5a20,20,0,0,1-.2,4.2c0-4.3-2.5-6-5.7-6.3h-.3c.7,7.4,3.2,14.3,4,21.3,15-3,23,15,34,23h3.4l1.6-4A55.1,55.1,0,0,0,310,205.6c-15.7-.6-28.9-9.4-43.8-13.5C260.5,193.4,258.8,188.4,254.9,184.5Z" fill="#e0e0e0"/>
        </clipPath>
        <clipPath id="clip-path-22">
            <path d="M189.7,196.7c6,4,18-17,30-9-3.5-8.7-12.2-5.4-19.7-6.3a45.2,45.2,0,0,0-5.3,4.3c-7.9-10.9,3.6-35.3-13.3-32.2.9,1.1,1.6,2.3,2.4,3.4v1.3l-4.2,3.7C179.9,175.2,181.3,190.2,189.7,196.7Z" fill="none"/>
        </clipPath>
        <clipPath id="clip-path-23">
            <path d="M189.7,196.7c6,4,18-17,30-9-3.5-8.7-12.2-5.4-19.7-6.3a45.2,45.2,0,0,0-5.3,4.3c-7.9-10.9,3.6-35.3-13.3-32.2.9,1.1,1.6,2.3,2.4,3.4v1.3l-4.2,3.7C179.9,175.2,181.3,190.2,189.7,196.7Z" fill="#d9d9d9"/>
        </clipPath>
        <clipPath id="clip-path-24">
            <path d="M188.5,195.7c-7.3-6.9-8.7-21.2-8.8-33.8a125.8,125.8,0,0,0-12.9,13.4c-1.6,1.9-3.1,4-3,6.4s2.4,4.6,4.7,5.9,4.8,2.3,6.7,4.1a16.4,16.4,0,0,1,2,2.6,3.4,3.4,0,0,1,.8,2.5,2.4,2.4,0,0,1-.7,1.2c-.6.6-1.1,1.3-1.6,1.9C180.2,199,185.3,198.7,188.5,195.7Z" fill="#c2c2c2"/>
        </clipPath>
        <clipPath id="clip-path-25">
            <path d="M254.7,188.7c1-6-1-11-1-17-14,1-28,7-42,6A44.9,44.9,0,0,1,213,173c-4.3,2.8-8.8,5.5-13,8.4,5.3.7,11.2-.8,15.5,1.4,0-.1.1-.1.2-.1,10-4,22-7,33-7a30,30,0,0,0,0,6.7C252,182.6,254.7,184.3,254.7,188.7Z" fill="#b3b3b3"/>
        </clipPath>
    </defs>

    <!--crumpled paper-->
    <g id="crumpled-paper">
        <g opacity="0.05">
            <path d="M346,252.2c.8-.8,5.1-1.4,9.1-1.8s8.5-1,9.7-1.8-.3-1.5,1.6-2.2a36.7,36.7,0,0,1,7.1-.8c2.8-.2,5.8-.3,8-.7a17.3,17.3,0,0,0,3.1-.8l-17.4-3.6h.1a239.8,239.8,0,0,0-29.4-6.5c-1.1-.2-2.2-.3-2.4-.6s.3-.4.8-.6l4.1-1.6c5-1.9,10-3.9,16-5.7l.2-.3-9.4-1.1-15.5-1.9-6.6-.7-7.8-.7c-7.1-.5-12-1.2-19.2-1.6l-3.1-.3a46,46,0,0,0-7.7-.5,56.6,56.6,0,0,0-6,.4c-15.8,1.7-31.6,3.4-46.5,5.3l-5.8.8-5.5.8a93.2,93.2,0,0,1-10.8.5,130.2,130.2,0,0,0-13.4,1.1c-7,.4-17.7,1.9-17.7,1.9H179c-.7.1-1.2.3-1,.5l1.1.3c5,.8,11.6,1.2,17.4,1.8h-.2c-13.5,1.3-26,2.9-38.5,4.4l-.9.2c-.1.1,0,.2.1.2,2.1,1.3,7.2,2.5,13.8,3.1l6,.6a59.2,59.2,0,0,1,7,1.5v.3c-6.3.9-11.9,2-17.1,3.2-1.6.3-3.1.7-3,1.2s2.4.8,4.7,1.1,4.8.4,6.7.7l2,.5c.5.2,1,.3.8.5l-.7.2-11.4,2.5h-.3c-1.9.1-2.5.6-1.6,1a36.1,36.1,0,0,0,4.8.7c14.5,1.3,29.8,2.3,45.7,2.9l3.7.2,1.6.2,11.8,1.8,4.3.5a117.2,117.2,0,0,0,12,.3c3.6-.1,7.4-.1,10.4-.5a50.8,50.8,0,0,0,7-1.4,94,94,0,0,1,19.9-1.6h1l28.3.6h1.4l1.4-.2a210,210,0,0,1,25.2-3.5l1.5-.2.7-.2a2.9,2.9,0,0,0,1.3-1"/>
        </g>
        <path d="M346,210.8c.8-4.6,5.1-7.5,9.1-9.9s8.5-4.9,9.7-9.4-.3-8.2,1.6-11.6,4.3-3.8,7.1-4.7,5.8-1.5,8-3.5a16.3,16.3,0,0,0,3.1-4.2c-5.9-6.2-11.4-13.2-17.4-19.4h.1c-8.7-12.5-17.6-25.2-29.4-34.7-1.1-.8-2.2-1.7-2.4-3s.3-2.3.8-3.4l4.1-8.6c5-10.3,10-20.7,16-30.5l.2-1.4c-3-2.2-6.2-4.2-9.4-6.2l-15.5-9.8c-2.2-1.4-4.3-2.7-6.6-3.9a78.3,78.3,0,0,0-7.8-3.6c-7.1-2.9-12-6.4-19.2-9L295,32.3c-2.3-1.4-4.9-2.8-7.7-2.6s-4.1,1.2-6,2.3c-15.8,9.1-31.6,18.2-46.5,28.6L229,64.8c-1.8,1.2-3.6,3.2-5.5,4-3.7,1.6-6.7,3.1-10.8,3s-7.8,2.6-13.4,5.9-17.7,9.7-17.7,9.7a6.4,6.4,0,0,0-2.6,1,2.3,2.3,0,0,0-1,2.3,2.9,2.9,0,0,0,1.1,1.6c5,4.4,11.6,6.4,17.4,9.6.2.2.5.3.5.5s-.3.8-.7,1c-13.5,6.7-26,15.1-38.5,23.6-.4.3-.8.5-.9,1a1.7,1.7,0,0,0,.1,1,27.9,27.9,0,0,0,13.8,16.7,48.7,48.7,0,0,1,6,3.1c2.9,2,5,5.1,7,8.1v1.3a125.6,125.6,0,0,0-17.1,17.1c-1.6,1.9-3.1,4-3,6.4s2.4,4.6,4.7,5.9,4.8,2.3,6.7,4.1a16.4,16.4,0,0,1,2,2.6,3.4,3.4,0,0,1,.8,2.5,2.4,2.4,0,0,1-.7,1.2l-11.4,13.5-.3.3c-1.9.6-2.5,3.3-1.6,5.1s3,2.9,4.8,3.8a184.5,184.5,0,0,0,45.7,15.7,17.3,17.3,0,0,1,3.7,1.1l1.6,1.2,11.8,9.4a20.3,20.3,0,0,0,4.3,2.9c3.7,1.8,7.9,1.6,12,1.4s7.4-.5,10.4-2.5,4.7-5,7-7.7a24.9,24.9,0,0,1,19.9-8.6l1,.6,28.3,3.3h1.4a3,3,0,0,0,1.4-1.1c7.4-7.5,15.4-14.8,25.2-18.7a4.4,4.4,0,0,0,1.5-.8,3.3,3.3,0,0,0,.7-1.3,21.2,21.2,0,0,0,1.3-5.4" fill="#fff"/>
        <g>
            <path d="M354.7,181.7c2-10,5-21,0-31-7.8-13.6-16.5-26.2-22.4-40.6-15.4-1.2-30.7-3.6-46.5-2.2,1.5,4.4,3.3,9.2,8.9,10.8-6,3-15,7-16,11s-4.1,8.2-6.4,11.1c18.8,4.7,39.5-3,56.4,6.9,2,2-3,9-3,15,2-1,3,1,5,1-.9,5.7-5.1,10.9-6,17,9,1.8,20.3,8.4,17.5,17.7a20.4,20.4,0,0,1,6.4,7.5,26.8,26.8,0,0,1,6.5-5c4-2.3,8.5-4.9,9.7-9.4s-.3-8.2,1.6-11.6a8.2,8.2,0,0,1,1.9-2.2C363.8,179.4,359.8,182.4,354.7,181.7Z" fill="#e0e0e0"/>
            <g clip-path="url(#clip-path)">
                <path d="M325.5,154.9c2.7,1.2,5.3,2.7,8,3.8s2.1-1.7.7-2.3-5-2.5-7.5-3.6-2.6,1.5-1.2,2.1Z" opacity="0.2"/>
                <path d="M323.4,135.1c5.9,2.3,16.8,7.3,19.6,8.5.4.2-7.4,15.3-7.8,15.5s-17.4-8.9-21.4-9.9C313.8,149.2,320.4,137.8,323.4,135.1Z" fill="#c2dff7"/>
                <path d="M323.5,138.3c5.8,2.3,11.3,5.1,17.1,7.4,1.5.6,2.1-1.7.7-2.3-5.8-2.3-11.4-5.1-17.2-7.4-1.4-.6-2.1,1.7-.6,2.3Z" opacity="0.1"/>
                <path d="M332.4,110.1c2.9,9.5,8.5,18.9,13.6,27.3,2.7,4.6,6.3,9.3,8.1,14.2s1.4,8.5,1.3,12.8a43.4,43.4,0,0,1-.9,10.8c-.6,2.4-2.3,4.7-2.5,7.1a1.3,1.3,0,0,0,.9,1.2c5.6,1.9,11.4-4.4,16.9-4.9,1.5-.1,1.5-2.5,0-2.4-3.1.3-6.2,1.9-9,3.1a39,39,0,0,1-4.7,2c-1.5.3-1,.8-1.1-.2s.5-1.3.7-1.8a48.8,48.8,0,0,0,1.4-25.7c-1.9-9-9.1-16.8-13.3-24.9-3.2-6.2-7-12.6-9.1-19.2-.5-1.5-2.8-.9-2.3.6Z" opacity="0.1"/>
            </g>
        </g>
        <g>
            <path d="M317.7,196.7a9,9,0,0,0,1-5c-7,12-13,23-27,31l-1.6,4h.6a15.6,15.6,0,0,1-2.3,7.8l26.1,3h1.4a3,3,0,0,0,1.4-1.1c7.4-7.5,15.4-14.8,25.2-18.7a4.4,4.4,0,0,0,1.5-.8,3.3,3.3,0,0,0,.7-1.3,21.2,21.2,0,0,0,1.3-5.4v.6a9.4,9.4,0,0,1,2.6-4.9C343.3,195,328.8,191.1,317.7,196.7Z" fill="#e3e3e3"/>
            <g clip-path="url(#clip-path-2)">
                <path d="M335,200.3c1.8-1.1,3-3,4.8-4.1s.1-2.9-1.2-2.1-3,3.1-4.9,4.2a1.2,1.2,0,1,0,1.3,2Z" opacity="0.2"/>
                <path d="M312.1,215.5c3-2.5,5.8-5.2,8.6-8a1.2,1.2,0,0,0-1.7-1.7c-2.8,2.8-5.6,5.5-8.6,8-1.2,1,.6,2.7,1.7,1.7Z" opacity="0.2"/>
                <path d="M302.3,208.7c1,1.1,7.9,7.7,8.2,7.7s11.4-9.9,11.5-10.3-7.9-8.5-8.1-8.4S302.3,208.7,302.3,208.7Z" fill="#ff9899"/>
                <path d="M325.8,193.5c1.9,2.2,7.1,6.8,7.9,7.5a57,57,0,0,0,6-5.3,53.5,53.5,0,0,0-6.9-7.2Z" fill="#c2dff7"/>
                <path d="M321.3,217.8c4.4-3.3,13.7-10.3,14-10.4s6,7,8.4,9.8c-6.1,2.4-9.9,5-15.2,9.1C328.5,226.3,324.1,221.3,321.3,217.8Z" fill="#fbc066"/>
                <path d="M324,219.1c4.2-2.7,8.3-5.9,12.3-9,1.2-1-.5-2.7-1.7-1.7-3.9,3-7.7,6-11.8,8.6-1.3.9-.1,2.9,1.2,2.1Z" opacity="0.1"/>
                <path d="M317.2,192.2v4.7c0,.7.8,1.5,1.5,1.2a27.5,27.5,0,0,1,10.2-1.9,22.7,22.7,0,0,1,10.5,2.6,20.1,20.1,0,0,1,5.2,4,4.4,4.4,0,0,1,1.7,2.5c.4,2.2.2.1-.7,2.5s-1.3,7.2-4.3,9.3-4.3,2.2-6.4,3.3a76.8,76.8,0,0,0-19.7,16.2c-1,1.2.7,2.9,1.7,1.7a76.4,76.4,0,0,1,21.7-17.1c1.9-1,4.3-1.8,5.9-3.4,2.9-3.1,1.9-7.8,5-11.1a1.2,1.2,0,0,0,.2-1.4,26.2,26.2,0,0,0-31.6-9.6l1.5,1.2v-4.7a1.2,1.2,0,1,0-2.4,0Z" fill="#fff" opacity="0.3"/>
            </g>
        </g>
        <g>
            <path d="M325.7,162.7c0-6,5-13,3-15-16.9-9.9-37.6-2.2-56.4-6.9-2.4,2.9-5.2,4.4-8.6,2.9-9.7-3.9-13.8-17.1-21.3-26.1-8.9-3.8-19.8,4.1-25.7,10.1-5,4-3,15-1,24v2a4.1,4.1,0,0,0-2,1.2c4.8,2,10.6,0,15,1.8-3.1,7.1-9.1,12-15.7,16.3a44.9,44.9,0,0,0-1.3,4.7c14,1,28-5,42-6,0,4.5,1.1,8.5,1.2,12.8,3.9,3.9,5.6,8.9,11.3,7.6l-1.5-.4c19-2,37,0,56-5,1,0,4-3,4-6h0c.9-6.1,5.1-11.3,6-17C328.7,163.7,327.7,161.7,325.7,162.7Z" fill="#e6e6e6"/>
            <g clip-path="url(#clip-path-3)">
                <path d="M229.3,123.8a90.3,90.3,0,0,1,4.4,8.8c.4.9,1,1.9,1.9,1.8l.8-.4,14.8-8.9c.3-.1.6-.3.6-.6a.9.9,0,0,0-.3-.5l-5.1-6.4a2.6,2.6,0,0,0-3.1-1.3c-5.2.8-9.7,4-14,7.1Z" fill="#fbc066"/>
                <path d="M235.9,133.4c3.8-2,7.4-4.1,10.9-6.3,1.3-.8.1-2.9-1.2-2-3.5,2.2-7.2,4.3-10.9,6.2-1.3.7-.1,2.8,1.2,2.1Z" opacity="0.1"/>
                <path d="M270.5,142.1c8.1,2.8,17.2,2,25.7,1.8,10.8-.1,22,0,31.8,5.3l-.5-1.7c-2.3,4.8-4.3,10.7-3.7,16.1.1.7.7,1.4,1.5,1.1s3.3-.2,3.2-.5-.3.8-.3,1a45.8,45.8,0,0,1-1.4,5.3,86.7,86.7,0,0,0-2.1,11.1c-.2,1.6,2.2,1.6,2.4,0a100.5,100.5,0,0,1,3.8-17.1,1.3,1.3,0,0,0-.6-1.4,6.9,6.9,0,0,0-5.6-.7l1.5,1.2c-.5-4.9,1.3-10.5,3.4-14.8a1.3,1.3,0,0,0-.4-1.7c-8.8-4.8-18.8-5.6-28.6-5.6s-20.2,1.4-29.5-1.8c-1.5-.5-2.1,1.9-.6,2.4Z" fill="#fff" opacity="0.5"/>
                <path d="M253.2,185.7c3.9,4.9,7.6,9.9,14.8,8.2,1.5-.3.8-2.6-.7-2.3-6.1,1.4-9.1-3.5-12.4-7.6-1-1.2-2.7.5-1.7,1.7Z" opacity="0.1"/>
                <path d="M215.1,156.2c2.1-2.9,2.1-3.7,1.5-7.5s-2-8.4-1.9-12.4c.1-6.2,5.3-10.9,10.2-13.8s11-6.3,17.8-5.2c1.8.2,2.5-2.5.7-2.7-10.5-1.6-24.2,5.2-29.4,14.6-2.2,4-2.2,7.5-1.5,11.9.4,2.8.9,5.6,1.4,8.4s.5,3-1.2,5.3,1.4,2.8,2.4,1.4Z" opacity="0.1" style="mix-blend-mode: darken"/>
            </g>
        </g>
        <g>
            <path d="M335.4,109.9a6.9,6.9,0,0,1,.9-3c1.4-2.8,2.7-5.7,4.1-8.6,5-10.3,10-20.7,16-30.5l.2-1.4c-3-2.2-6.2-4.2-9.4-6.2l-15.5-9.8c-2.2-1.4-4.3-2.7-6.6-3.9a78.3,78.3,0,0,0-7.8-3.6l-1.3-.5c-8.5,2.2-17.2,5.3-17.7,14.6,10.7,6,19.6,14.7,32.4,16.7C329.7,85.8,326.2,101.3,335.4,109.9Z" fill="#ebebeb"/>
            <g clip-path="url(#clip-path-4)">
                <g opacity="0.2">
                    <path d="M332.2,65.1c1.8,1,6.9,5.3,8,5.8"/>
                    <path d="M331.6,66.1c1.5.9,2.9,2.1,4.3,3.1a19.5,19.5,0,0,0,3.7,2.7c1.4.6,2.7-1.5,1.2-2.1a15.9,15.9,0,0,1-3.7-2.7,33,33,0,0,0-4.3-3c-1.3-.8-2.5,1.3-1.2,2Z"/>
                </g>
                <path d="M326.2,63.5c-3.3-1.9-8.9-5.5-9-5.4a76.2,76.2,0,0,0-4.5,9.1,76.1,76.1,0,0,0,8.7,4.6S324.9,65.6,326.2,63.5Z" fill="#ff9899"/>
                <path d="M330.4,65c3.1,2.3,10.4,7.3,10.5,7.2s5-6,4.7-6.2-7.4-4.8-10.3-7Z" fill="#ff9899"/>
                <path d="M317.1,61.3a44.4,44.4,0,0,0,6.3,3.9c1.5.9,3-1.5,1.4-2.4a50.9,50.9,0,0,1-6.3-3.9c-1.5-1.1-2.9,1.3-1.4,2.4Z" opacity="0.1"/>
                <path d="M334.8,62.3a84.7,84.7,0,0,0,7.9,5.4,1.4,1.4,0,0,0,1.4-2.4c-2.7-1.6-5.3-3.5-7.9-5.4s-2.8,1.3-1.4,2.4Z" opacity="0.1"/>
                <path d="M296.6,57.4c10.7,6,21.3,16.9,34.2,17.5l-1.4-1.4c-.9,11.6-5.5,28.7,5,37.4,1.4,1.1,3.4-.9,2-2-9.7-8.1-5-24.7-4.2-35.4.1-.8-.7-1.3-1.4-1.4-7-.3-14-5-19.8-8.6s-8.5-6-13-8.6c-1.6-.8-3,1.6-1.4,2.5Z" fill="#fff" opacity="0.2"/>
                <path d="M315.5,40.2c-8.6,2.2-17.8,6.4-19.2,16.3-.2,1.5,2.1,2.1,2.3.6,1.3-9,9.7-12.6,17.6-14.6,1.5-.4.8-2.7-.7-2.3Z" opacity="0.1"/>
            </g>
        </g>
        <g>
            <path d="M316,42.4c-6.4-2.8-11.2-6.1-17.9-8.5L295,32.3a21.4,21.4,0,0,0-4.3-2.1c.6,9.7-2.7,17.1-7.9,23.5,5.9,2,9.9,6,15.9,8C296.2,48.7,306.2,44.9,316,42.4Z" fill="#dedede"/>
            <g clip-path="url(#clip-path-5)">
                <path d="M301.2,42.4c2.3-.9,4.5-1.6,6.8-2.3a1.2,1.2,0,0,0-.6-2.3c-2.3.7-4.6,1.4-6.8,2.3s-.8,2.8.6,2.3Z" opacity="0.2"/>
                <path d="M300.4,52.4c-.5-2.7-1.1-9.1-1.3-11.6,2.4-.6,9-2.9,11.4-3.6.3,0,6.8,4.4,9.3,5.8C314.4,44.2,304,50.4,300.4,52.4Z" fill="#ff9899"/>
            </g>
        </g>
        <g>
            <path d="M286.7,226.7c-11-8-19-26-34-23-1-9-5-18-4-28-11,0-23,3-33,7-.1,0-.2,0-.2.1a8.5,8.5,0,0,1,3.9,4.2c1.9,1.9,2.8,4.3,1.3,6.7-8,7-28,0-24,15l-.9-.2c9.9,11,20.4,20.8,30.9,32.2a40.3,40.3,0,0,1,1.4,4.6l3.5,2.8a20.3,20.3,0,0,0,4.3,2.9c3.7,1.8,7.9,1.6,12,1.4s7.4-.5,10.4-2.5,4.7-5,7-7.7a24.9,24.9,0,0,1,19.9-8.6l1,.6,2.2.3a15.6,15.6,0,0,0,2.3-7.8Z" fill="#ebebeb"/>
            <g clip-path="url(#clip-path-6)">
                <path d="M239.7,217.4c11.2-1.1,22.6-2.4,33.7-4.5,1.5-.3.9-2.6-.6-2.3-10.9,2-22.1,3.4-33.1,4.4-1.5.2-1.5,2.6,0,2.4Z" opacity="0.2"/>
                <path d="M232.3,178.8c1.6,12.5,3.6,25.7,5.6,38.2,11.5-1.3,30.6-3.6,38.1-5.2-.7-3.4-8-39-8.3-38.9C263.2,173.8,232.3,178.8,232.3,178.8Z" fill="#c2c066"/>
                <path d="M266.6,240.8s-16.9,1.5-18.7,1.8c.2,3,.4,7.2.6,10.2,2-.1,13.7-.8,17.9-1.6C266.9,248.7,266.7,244.3,266.6,240.8Z" fill="#c2c066"/>
                <path d="M227.1,246.3c1.7-1.7,6.9-6.3,7-6.4s8,6.2,7.6,6.6-4.2,5.5-5.5,7.1Z" fill="#fbc066"/>
                <path d="M233.3,242.7c1.9,1.6,3.8,3.3,5.8,4.8s2.5-1.2,1.3-2.1A47,47,0,0,1,235,241c-1.2-1-2.9.6-1.7,1.7Z" opacity="0.1"/>
                <path d="M290.7,236c1.2-3.1.9-5.6,1-8.8a1.3,1.3,0,0,0-.9-1.2c-6.8-1.4-12.3-9.4-17.2-13.9s-10.6-9.6-17.5-9.5c-.5,0-4.3.2-2.8,1.2-.4-.2-.5-2-.6-2.4-.5-2.9-.9-5.8-1.3-8.7s-1-7.4-1.4-11.1c-.2-1.6-.8-4-.5-5.5a1.4,1.4,0,0,0-1.2-1.6,84.1,84.1,0,0,0-34.4,6.7c-1.4.6-.2,2.7,1.2,2.1,9.6-4.4,22.6-6.7,33.2-6.4l-1.1-1.5c-1,5.1,1,11.9,1.7,17,.4,2.4.3,12.2,3.3,13.3,1.2.4,4-.8,5.6-.5a16,16,0,0,1,6.9,2.8,65.9,65.9,0,0,1,11,9.4,84.5,84.5,0,0,0,8.8,8.1c1.1.8,2.6,1.4,3.7,2.2s.7-.1,1.1,1.2a10.7,10.7,0,0,1-.9,6.4c-.5,1.5,1.8,2.1,2.3.7Z" opacity="0.1"/>
                <path d="M225.5,246.4c7.7,7.7,24.3,10.5,33.6,4.3,6.1-4,9.2-11.1,16.2-14.2a16.4,16.4,0,0,1,10.2-1.3,16.7,16.7,0,0,0,3.9.4,1.2,1.2,0,1,0,0-2.4,20.8,20.8,0,0,1-2.5,0c-.6-.2-1.1-.8-1.7-.9a22.4,22.4,0,0,0-6.8.6c-5,1.1-9.1,4.1-12.7,7.7s-5.1,6.4-8.4,8.3-7.3,2.4-10.9,2.5c-6.4.1-14.5-2-19.2-6.7a1.2,1.2,0,0,0-1.7,1.7Z" opacity="0.1"/>
            </g>
        </g>
        <g>
            <path d="M196.7,208.7c-4-15,16-8,24-15,1.5-2.4.6-4.8-1.3-6.7l.3.7c-12-8-24,13-30,9l-1.2-1c-3.2,3-8.3,3.3-12.8,4.2l-3.5,4.1C180.6,201.3,187.9,206.9,196.7,208.7Z" fill="#e0e0e0"/>
            <g clip-path="url(#clip-path-7)">
                <path d="M182.9,195c0,.9-.1,6.9.1,6.9s12.6-.4,12.7-.5-.3-6.9-.4-7Z" fill="#c2c066"/>
                <path d="M184.6,201.4l9.5-.4a1.2,1.2,0,0,0,0-2.4l-9.5.4a1.2,1.2,0,0,0,0,2.4Z" opacity="0.1"/>
                <path d="M219.4,187.5c4,8.4-15.1,8.5-19.5,10.5s-4.5,7-3,12.1a1.2,1.2,0,0,0,2.3-.7c-1-3.3-2.9-6.6.8-8.9s11.6-2.3,16.9-4.4,6.8-5.1,4.6-9.8c-.7-1.4-2.7-.2-2.1,1.2Z" opacity="0.1"/>
                <path d="M220,184.5a16.7,16.7,0,0,0-15,1.8c-3.6,2.3-11.5,12.6-15.6,7.9a1.2,1.2,0,0,0-1.4-.2c-4.1,3-9.4,3.8-14.3,3.9a1.2,1.2,0,1,0,0,2.4,40,40,0,0,0,13.6-3c2-.7.2-.3,2.1.1a7.1,7.1,0,0,0,2.8.6c3.3-.2,6.2-3.2,8.6-5.2,5.5-4.9,11-8.5,18.6-6,1.5.5,2.1-1.8.6-2.3Z" opacity="0.1"/>
                <path d="M171.1,205.4a76.8,76.8,0,0,1,5.5-5.9c1-1.1-.7-2.8-1.7-1.7a76.8,76.8,0,0,0-5.5,5.9c-.9,1.2.8,2.9,1.7,1.7Z" fill="#fff" opacity="0.5"/>
            </g>
        </g>
        <g>
            <path d="M195.8,208.5c-8.4-2-15.5-7.1-23.6-4.5l-6.3,7.5-.3.3c-1.9.6-2.5,3.3-1.6,5.1s3,2.9,4.8,3.8a184.5,184.5,0,0,0,45.7,15.7,17.3,17.3,0,0,1,3.7,1.1l1.6,1.2,8.3,6.6a40.3,40.3,0,0,0-1.4-4.6C216.2,229.3,205.7,219.5,195.8,208.5Z" fill="#c2c2c2"/>
            <g clip-path="url(#clip-path-8)">
                <path d="M176.6,218.8l7.4,3.5c1.4.6,2.7-1.4,1.3-2.1s-5-2.3-7.5-3.5-2.6,1.5-1.2,2.1Z" opacity="0.2"/>
                <path d="M198.5,226.2c0,.1,16.3,7.4,17.1,7.5,1.1-2.2,5.2-10.7,4.2-11.4-5.4-3.6-14.6-7.1-16.4-8C203.4,214.3,199.3,223.1,198.5,226.2Z" fill="#ff9899"/>
                <path d="M186.5,214.1l8.5,3.5c1-1.8,3.2-7.6,4.2-9.4.1-.2-7.9-2.5-9.3-3S186.4,213.9,186.5,214.1Z" fill="#c2dff7"/>
                <path d="M170.4,224.7c1.7-2.3,5.7-8.3,5.8-8.3s10.1,4.5,10.2,4.6-2.8,6.2-4,8.2Z" fill="#fbc066"/>
                <path d="M188,214.1a45.3,45.3,0,0,0,6,2.6c1.4.6,2.1-1.7.7-2.3s-3.8-1.4-5.5-2.3-2.6,1.3-1.2,2Z" opacity="0.1"/>
                <path d="M170.6,204c7.3-1.6,18,1.6,24.1,5.6,3.9,2.6,7.1,7.1,10.3,10.4l14.9,14.8c4.1,4.1,6.5,6.3,8.6,11.6.6,1.5,2.9.8,2.3-.6-2.1-5.4-4.2-7.7-8.3-11.7l-17.1-17.2c-3.7-3.7-6.8-8.2-11.6-10.4-7-3.4-16-6.6-23.8-4.8-1.5.3-.9,2.6.6,2.3Z" opacity="0.1"/>
                <path d="M163.4,214a6.6,6.6,0,0,0,3.6,7.1c4.2,2.5,8.9,4.2,13.3,6.1,11.7,5.2,23.7,8.9,35.9,12.5a1.4,1.4,0,0,0,.7-2.7c-10.9-3.2-21.9-6.4-32.4-11l-9.7-4.3c-2.7-1.3-9.3-2.9-8.7-7,.3-1.8-2.4-2.5-2.7-.7Z" fill="#fff" opacity="0.3"/>
            </g>
        </g>
        <g>
            <path d="M194.7,185.7c11-10,28-15,34-29-4.4-1.8-10.2.2-15-1.8-1.7,1.6-2.8,4.3-5,5.8v1c-8-16-8-34-13-50h19c.8-2.6-.5-6.7,2.3-9H197c0,.3-.4.5-.7.7-13.5,6.7-26,15.1-38.5,23.6-.4.3-.8.5-.9,1a1.7,1.7,0,0,0,.1,1,27.9,27.9,0,0,0,13.8,16.7,48.7,48.7,0,0,1,6,3.1,18.7,18.7,0,0,1,4.6,4.7C198.3,150.4,186.8,174.8,194.7,185.7Z" fill="#ccc"/>
            <g clip-path="url(#clip-path-9)">
                <path d="M191.4,147.2c4.3-2.7,8.3-5.9,12.8-8.3,1.3-.7.1-2.8-1.2-2-4.5,2.3-8.5,5.6-12.8,8.2-1.3.8-.1,2.9,1.2,2.1Z" opacity="0.2"/>
                <path d="M179.7,129.9c7-4.9,14.4-9.2,21.4-14,1.3-.9.1-3-1.2-2.1-7,4.8-14.4,9.2-21.4,14-1.3.9-.1,2.9,1.2,2.1Z" opacity="0.2"/>
                <path d="M168.3,119.5c2,3.3,8.8,11.7,9.2,11.3s26.4-17.2,27.9-18.3c-1.3-1.5-7.3-7.4-9.7-9C185,109.1,168.3,119.5,168.3,119.5Z" fill="#fbc066"/>
                <path d="M210,134.4c-1.8-6-7.6-15-8.8-14.4-4.8,2.3-20.5,13.2-21.6,14l10.1,14.1Z" fill="#ff9899"/>
                <path d="M213.1,174.7c-5.6-5.1-13-14.2-18-20,3.9-3,20.8-13.9,24.2-16.5,4,4,18.3,16.8,17.5,17.5-4.3,4-18.9,15.4-23.2,19.5Z" fill="#c2dff7"/>
                <path d="M182.7,135.7c5.9-4,11.8-8.3,18-11.8a1.4,1.4,0,0,0-1.4-2.4c-6.3,3.5-12.1,7.8-18.1,11.7-1.5,1-.1,3.5,1.5,2.5Z" opacity="0.1" style="mix-blend-mode: darken"/>
                <path d="M213.7,153.6c-2.2,3-4.5,5.7-6.7,8.7l2.6.3c-5.7-17.1-8.9-34.6-13.3-52l-1.4,1.8,19.3-.2a1.4,1.4,0,0,0,1.4-1.4c-.2-2.5-.1-6,2.3-7.4a1.4,1.4,0,0,0-.7-2.6,123.2,123.2,0,0,1-21.8-1.2c-1.7-.2-1.7,2.6,0,2.8a123.2,123.2,0,0,0,21.8,1.2l-.7-2.7c-3.4,2-4,6.3-3.7,9.9l1.4-1.4-19.3.2a1.4,1.4,0,0,0-1.3,1.8c4.4,17.4,7.6,34.9,13.3,52a1.4,1.4,0,0,0,2.5.3c2.2-2.9,4.6-5.7,6.7-8.7,1.1-1.4-1.3-2.8-2.4-1.4Z" opacity="0.1" style="mix-blend-mode: darken"/>
            </g>
        </g>
        <g>
            <path d="M273.7,109.7c21.2-4.7,41.5-.8,61.8.6h0a.8.8,0,0,1-.1-.4c-9.2-8.6-5.7-24.1-4.7-36.2C317.9,71.7,309,63,298.3,57a15.7,15.7,0,0,0,.4,4.7c-6-2-10-6-15.9-8-8.4,10.6-21.9,18.5-31.1,29-8.3,4.9-19.2,6.5-26.7,13-.9,2.1-1.9,4.2-3,6.4C236.8,107,256.2,113.5,273.7,109.7Z" fill="#f5f5f5"/>
            <g clip-path="url(#clip-path-10)">
                <path d="M274.5,86.5c17.1-1.9,34.3-3.2,51.5-4.8,1.5-.2,1.5-2.6,0-2.4-17.2,1.6-34.4,2.9-51.5,4.8-1.5.2-1.5,2.6,0,2.4Z" opacity="0.2"/>
                <path d="M254.3,114.4c.5-3.6-.2-20.6,1.1-20.7,4.1-.6,24-3.4,29.5-3.8.3,5.5.6,10.5,1.5,20C277.9,109.1,254.3,114.4,254.3,114.4Z" fill="#fbc066"/>
                <path d="M302.9,92.3c3.7-.9,18.7-2.3,18.8-1.9,1.1,5.9,2.2,20.4,2.1,20.6s-18.3-1.1-19.6-1.3S301.4,92.6,302.9,92.3Z" fill="#c2dff7"/>
                <path d="M272.4,63.7s-1.8,22.3.2,22.1c7.6-.5,55.6-4.7,55.6-4.7l.8-8.3L283.7,45Z" fill="#c2dff7"/>
                <path d="M257,96.8c8.8-1.5,17.6-2.6,26.4-3.5,1.8-.2,1.8-3,0-2.8-9.1.9-18.1,2.1-27.1,3.6-1.8.2-1,2.9.7,2.7Z" opacity="0.1"/>
                <path d="M297.6,56.1c7.4,5.8,14.9,11.8,23.6,15.6a49.3,49.3,0,0,0,6.4,2.4c1.7.5,1.3-.5,1.8.8s-.4,4.6-.5,6.1c-.8,9.8-1.8,24.6,8,30.3a1.2,1.2,0,0,0,1.2-2.1c-10.2-5.9-7.2-22.8-6.5-32.5.4-4.9-.9-4-5.7-5.7-10-3.5-18.4-10.1-26.6-16.6-1.2-1-3,.7-1.7,1.7Z" opacity="0.1"/>
                <path d="M221.5,103.6a182.5,182.5,0,0,0,34.2,7.9c9.4,1.1,17.6-1.1,27-2.1,17.9-1.9,34.5,1.2,52.1,3.6,1.5.2,2.2-2.1.7-2.3-16.7-2.3-32.6-5.4-49.5-4-9.2.7-18.1,3.6-27.3,2.7a171.2,171.2,0,0,1-36.6-8.1,1.2,1.2,0,0,0-.6,2.3Z" opacity="0.1"/>
                <path d="M297,55.5c-.4,2.7-.4,5.6,1.5,7.8l1.4-1.9a108.9,108.9,0,0,1-16.8-9.9c-1.3-.9-2.5,1.2-1.2,2.1a100.9,100.9,0,0,0,16.8,9.8,1.2,1.2,0,0,0,1.5-1.8c-1.2-1.5-1.2-3.8-.9-5.5s-2.1-2.2-2.3-.6Z" opacity="0.1"/>
            </g>
        </g>
        <g>
            <path d="M290.7,30.2l-.5-.2C271,48.9,249.2,65.3,231,86.2l-.3.5-1.1-.4a51.1,51.1,0,0,0-4.6,9.4c7.5-6.5,18.4-8.1,26.7-13C266.6,65.8,292.3,55.8,290.7,30.2Z" fill="#e6e6e6"/>
            <g clip-path="url(#clip-path-11)">
                <path d="M289.1,30.5c2.2,19.2-16.2,30.9-28.6,42.2-2.6,2.4-5.2,4.7-7.7,7.2s-4.4,2.7-7.1,3.8c-7.4,2.9-15.6,5.8-21.6,11.1a1.2,1.2,0,0,0,1.7,1.7c7.1-6.3,16.9-8.3,25.3-12.3,2.1-1.1,3.6-2.8,5.3-4.4s6.1-5.7,9.3-8.6c12.1-11,27.9-22.1,25.8-40.7-.2-1.5-2.6-1.5-2.4,0Z" fill="#fff" opacity="0.2"/>
            </g>
        </g>
        <g opacity="0.5">
            <g clip-path="url(#clip-path-12)">
                <path d="M288.9,29.3c-19.5,19-40,37.1-59.1,56.5a1.2,1.2,0,0,0,1.7,1.7C250.6,68.1,271.1,50,290.6,31a1.2,1.2,0,0,0-1.7-1.7Z" fill="#e6e6e6"/>
                <path d="M221.8,69.3c23.1-11.7,43.4-27.9,66.3-39.7,1.4-.7.2-2.8-1.2-2.1C264,39.3,243.7,55.6,220.6,67.2c-1.4.7-.2,2.7,1.2,2.1Z" fill="#e6e6e6"/>
            </g>
            <g>
                <path d="M290.2,30a9.2,9.2,0,0,0-2.9-.3c-2.1.1-4.1,1.2-6,2.3-15.8,9.1-31.6,18.2-46.5,28.6L229,64.8c-1.8,1.2-3.6,3.2-5.5,4-3.7,1.6-6.7,3.1-10.8,3s-7.8,2.6-13.4,5.9c11.7.2,20.6,6,31.4,9C248.9,65.5,270.8,49,290.2,30Z" fill="#ebebeb"/>
                <g clip-path="url(#clip-path-13)">
                    <path d="M288.9,29.3c-19.5,19-40,37.1-59.1,56.5a1.2,1.2,0,0,0,1.7,1.7C250.6,68.1,271.1,50,290.6,31a1.2,1.2,0,0,0-1.7-1.7Z" opacity="0.1"/>
                    <path d="M221.8,69.3c23.1-11.7,43.4-27.9,66.3-39.7,1.4-.7.2-2.8-1.2-2.1C264,39.3,243.7,55.6,220.6,67.2c-1.4.7-.2,2.7,1.2,2.1Z" opacity="0.1"/>
                </g>
            </g>
        </g>
        <g opacity="0.5">
            <g clip-path="url(#clip-path-14)">
                <path d="M194.2,78.2c12.4-1.8,22.9,5.7,34,9.7l-.9-1.5-7.1,17.3c-.5,1.4,1.8,2.1,2.4.6l7-17.2a1.1,1.1,0,0,0-.8-1.5c-11.6-4.2-22.2-11.6-35.2-9.7-1.5.2-.9,2.5.6,2.3Z" fill="#c9c9c9"/>
                <path d="M194.5,104.6c4.7-1.7,10.5-1.3,15.4-1.3s9.7-.1,14.2,1a1.2,1.2,0,0,0,.6-2.3c-4.7-1.2-10-1-14.8-1.1s-11.1-.4-16.1,1.3c-1.4.6-.8,2.9.7,2.4Z" fill="#c9c9c9"/>
            </g>
            <g>
                <path d="M229.6,86.3c-10.3-3-19-8.4-30.3-8.6h0c-7,2.1-17.7,9.7-17.7,9.7a6.4,6.4,0,0,0-2.6,1,2.3,2.3,0,0,0-1,2.3,2.9,2.9,0,0,0,1.1,1.6c5,4.4,11.6,6.4,17.4,9.6.2.2.5.3.5.5s0,.2,0,.3h24.7C224.9,97,226.1,91.4,229.6,86.3Z" fill="#d9d9d9"/>
                <g clip-path="url(#clip-path-15)">
                    <path d="M194.2,78.2c12.4-1.8,22.9,5.7,34,9.7l-.9-1.5-7.1,17.3c-.5,1.4,1.8,2.1,2.4.6l7-17.2a1.1,1.1,0,0,0-.8-1.5c-11.6-4.2-22.2-11.6-35.2-9.7-1.5.2-.9,2.5.6,2.3Z" opacity="0.1"/>
                    <path d="M194.5,104.6c4.7-1.7,10.5-1.3,15.4-1.3s9.7-.1,14.2,1a1.2,1.2,0,0,0,.6-2.3c-4.7-1.2-10-1-14.8-1.1s-11.1-.4-16.1,1.3c-1.4.6-.8,2.9.7,2.4Z" fill="#fff" opacity="0.5"/>
                </g>
            </g>
        </g>
        <g>
            <path d="M263.7,143.7c7,3,11-6,15-14,1-4,10-8,16-11-5.6-1.6-7.4-6.4-8.9-10.8a84.2,84.2,0,0,0-12.1,1.8,62.2,62.2,0,0,1-20.2.6c-3.6,2.3-6.7,5.3-10.8,7.4h-.3C249.9,126.6,254,139.8,263.7,143.7Z" fill="#dbdbdb"/>
            <g clip-path="url(#clip-path-16)">
                <path d="M283.9,108c1.4,5.1,4,10.1,9.4,11.7v-2.3c-6.1,1.5-13.3,5.4-16.6,10.9s-4.5,13.9-11.5,15.2c-1.5.3-.9,2.6.6,2.3,5-.9,8.5-6.2,10.3-10.5s2.8-7.1,5.7-9.4a33.2,33.2,0,0,1,12.1-6.2,1.2,1.2,0,0,0,0-2.3c-4.5-1.3-6.5-5.8-7.7-10.1-.4-1.5-2.7-.8-2.3.7Z" fill="#fff" opacity="0.5"/>
                <path d="M252.8,106.9a26.9,26.9,0,0,1-11.3,9.3,1.5,1.5,0,0,0-.6,2.4c8.3,8.9,11.5,22.3,23,28.3a1.4,1.4,0,0,0,1.4-2.4c-11.2-5.9-14.3-19.2-22.4-27.9l-.6,2.3a30.7,30.7,0,0,0,12.9-10.5,1.4,1.4,0,0,0-2.4-1.5Z" opacity="0.1" style="mix-blend-mode: darken"/>
            </g>
        </g>
        <g>
            <path d="M214.7,111.7h-19c5,16,5,34,13,50v-1c3-2,4-6,7-7v-2c-2-9-4-20,1-24,6-6,17-14,26-10,4.1-2.1,7.2-5.1,10.8-7.4-11.3-1.4-22.3-5.1-31.5-8.2l-.3.6H217C214.2,105,215.5,109.1,214.7,111.7Z" fill="#f2f2f2"/>
            <g clip-path="url(#clip-path-17)">
                <path d="M218.2,155.2c-.5-6.3-2.6-12.3-3.1-18.6-.7-8.3,6.1-12.1,12.4-15.9,2.7-1.6,5.1-3.4,8.3-3.2s3.5.7,5.3.7c5.8.3,10.7-3.2,15-6.8,1.2-1-.5-2.7-1.7-1.7-3.5,2.9-7.5,6-12.2,6.2-2,0-3.8-.6-5.8-.8-6.1-.5-12.2,4.4-16.8,7.8-11.5,8.5-4.8,20.6-3.8,32.3.1,1.6,2.5,1.6,2.4,0Z" fill="#fff" opacity="0.5"/>
                <path d="M253.6,108.3c-5.2-.5-10.4-2.3-15.4-3.7s-12.7-3.4-18.7-6.1c-1.6-.7-3,1.7-1.4,2.4,6.2,2.8,12.8,4.6,19.3,6.4s10.7,3.3,16.2,3.8c1.8.2,1.7-2.6,0-2.8Z" opacity="0.1" style="mix-blend-mode: darken"/>
            </g>
        </g>
        <g>
            <path d="M381.5,171.7a16.3,16.3,0,0,0,3.1-4.2c-5.9-6.2-11.4-13.2-17.4-19.4h.1c-8.7-12.5-17.6-25.2-29.4-34.7a10.5,10.5,0,0,1-1.9-1.7c-.2,0-.3-.1-.3-.7a1.4,1.4,0,0,1-.2-.6l-3.2-.2c5.9,14.4,14.6,27,22.4,40.6,5,10,2,21,0,31,5.1.7,9.1-2.3,13.6-4a19.2,19.2,0,0,1,5.2-2.5C376.3,174.4,379.3,173.7,381.5,171.7Z" fill="#ebebeb"/>
            <g clip-path="url(#clip-path-18)">
                <path d="M334.8,109.5c7.9,10.6,17,20.2,25.1,30.5s15.3,20.4,24.2,29.3c1,1.1,2.7-.6,1.7-1.7-8.5-8.5-15.6-18.4-23-27.8s-17.8-20.6-25.9-31.5c-.9-1.2-3,0-2.1,1.2Z" fill="#fff" opacity="0.5"/>
            </g>
        </g>
        <g opacity="0.5">
            <g clip-path="url(#clip-path-19)">
                <path d="M311.3,206.4c2.4-4.5,5.3-8.9,8-13.2.8-1.3-1.2-2.5-2.1-1.2-2.7,4.3-5.6,8.7-8,13.2-.7,1.4,1.4,2.6,2.1,1.2Z" fill="#8f8f8f"/>
                <path d="M324,182.2c7.2,2,18.1,6.7,16.6,15.9-.2,1.5,2.1,2.1,2.3.6,1.8-10.7-9.5-16.4-18.3-18.8-1.5-.4-2.1,2-.6,2.3Z" fill="#8f8f8f"/>
                <path d="M264.7,192.9c13.5-.9,27.1-1.1,40.6-2.4,6.6-.6,20.7-.3,20-10-.1-1.5-2.5-1.6-2.4,0s-2.6,5.1-5.1,5.8l-5.9,1c-5.5.8-11.1,1.2-16.6,1.6-10.2.6-20.4.9-30.6,1.6-1.6.1-1.6,2.5,0,2.4Z" fill="#8f8f8f"/>
            </g>
            <g>
                <path d="M324.7,180.7c0,3-3,6-4,6-19,5-37,3-56,5,15.4,3.8,29.1,13.3,45.3,13.9,3.1-4.4,5.8-9.1,8.7-13.9a9,9,0,0,1-1,5,24.4,24.4,0,0,1,24.5,1.7C345.1,189.1,333.6,182.5,324.7,180.7Z" fill="#b0b0b0"/>
                <g clip-path="url(#clip-path-20)">
                    <path d="M311.3,206.4c2.4-4.5,5.3-8.9,8-13.2.8-1.3-1.2-2.5-2.1-1.2-2.7,4.3-5.6,8.7-8,13.2-.7,1.4,1.4,2.6,2.1,1.2Z" opacity="0.1"/>
                    <path d="M324,182.2c7.2,2,18.1,6.7,16.6,15.9-.2,1.5,2.1,2.1,2.3.6,1.8-10.7-9.5-16.4-18.3-18.8-1.5-.4-2.1,2-.6,2.3Z" opacity="0.1"/>
                    <path d="M264.7,192.9c13.5-.9,27.1-1.1,40.6-2.4,6.6-.6,20.7-.3,20-10-.1-1.5-2.5-1.6-2.4,0s-2.6,5.1-5.1,5.8l-5.9,1c-5.5.8-11.1,1.2-16.6,1.6-10.2.6-20.4.9-30.6,1.6-1.6.1-1.6,2.5,0,2.4Z" opacity="0.1"/>
                </g>
            </g>
        </g>
        <g>
            <path d="M254.9,184.5a20,20,0,0,1-.2,4.2c0-4.3-2.5-6-5.7-6.3h-.3c.7,7.4,3.2,14.3,4,21.3,15-3,23,15,34,23h3.4l1.6-4A55.1,55.1,0,0,0,310,205.6c-15.7-.6-28.9-9.4-43.8-13.5C260.5,193.4,258.8,188.4,254.9,184.5Z" fill="#e0e0e0"/>
            <g clip-path="url(#clip-path-21)">
                <path d="M292,227.1c.1-1.1-.1-3.2.4-4.3s-.8.6.8-.6,3.8-2.7,5.6-4.1a52.7,52.7,0,0,0,12.6-13.2c.9-1.3-1.2-2.5-2-1.2-4.2,6.2-9.6,10.8-15.6,15.1-1.2.8-3,1.7-3.7,3s-.3,3.9-.5,5.3,2.3,1.5,2.4,0Z" opacity="0.1"/>
                <path d="M311.9,203.6c-16.7,1.9-31.7-8.7-46.7-14.3a1.3,1.3,0,0,0-1.4,1.8l1,1.5,1.1-1.9c-4.5-.4-6.5-5-9.9-7.2a1.2,1.2,0,0,0-1.8,1,23.2,23.2,0,0,1-.6,4.5h2.3c-1.1-4.2-3.6-7.1-8-7.4-1.5-.1-1.5,2.3,0,2.4,3.3.2,4.9,2.8,5.7,5.6.3,1.1,2.1,1.2,2.3,0a29.8,29.8,0,0,0,.7-5.1l-1.8,1.1c4,2.5,5.9,7,11.1,7.5a1.2,1.2,0,0,0,1-1.8l-1-1.4-1.4,1.7c15.2,5.7,30.5,16.3,47.4,14.4,1.5-.1,1.5-2.5,0-2.4Z" fill="#fff" opacity="0.3"/>
            </g>
        </g>
        <g opacity="0.5">
            <g clip-path="url(#clip-path-22)">
                <path d="M180.8,153.7c16.4-1.3,5.1,24.6,12.9,33a1.2,1.2,0,0,0,1.7,0l6.9-7.7c1-1.1-.7-2.9-1.7-1.7l-6.9,7.7h1.7c-1.2-1.3-1.6-3.9-1.9-5.6-1.3-6.4-.1-13-1.3-19.3s-5-9.3-11.4-8.8c-1.5.1-1.5,2.5,0,2.4Z" fill="#b3b3b3"/>
            </g>
            <g>
                <path d="M189.7,196.7c6,4,18-17,30-9-3.5-8.7-12.2-5.4-19.7-6.3a45.2,45.2,0,0,0-5.3,4.3c-7.9-10.9,3.6-35.3-13.3-32.2.9,1.1,1.6,2.3,2.4,3.4v1.3l-4.2,3.7C179.9,175.2,181.3,190.2,189.7,196.7Z" fill="#d9d9d9"/>
                <g clip-path="url(#clip-path-23)">
                    <path d="M180.8,153.7c16.4-1.3,5.1,24.6,12.9,33a1.2,1.2,0,0,0,1.7,0l6.9-7.7c1-1.1-.7-2.9-1.7-1.7l-6.9,7.7h1.7c-1.2-1.3-1.6-3.9-1.9-5.6-1.3-6.4-.1-13-1.3-19.3s-5-9.3-11.4-8.8c-1.5.1-1.5,2.5,0,2.4Z" fill="#fff" opacity="0.5"/>
                </g>
            </g>
        </g>
        <g>
            <path d="M188.5,195.7c-7.3-6.9-8.7-21.2-8.8-33.8a125.8,125.8,0,0,0-12.9,13.4c-1.6,1.9-3.1,4-3,6.4s2.4,4.6,4.7,5.9,4.8,2.3,6.7,4.1a16.4,16.4,0,0,1,2,2.6,3.4,3.4,0,0,1,.8,2.5,2.4,2.4,0,0,1-.7,1.2c-.6.6-1.1,1.3-1.6,1.9C180.2,199,185.3,198.7,188.5,195.7Z" fill="#c2c2c2"/>
            <g clip-path="url(#clip-path-24)">
                <path d="M189.4,194.8c-8.2-8.7-8-21.9-7.1-33,.1-1.6-2.3-1.6-2.4,0-.9,11.8-.9,25.5,7.8,34.7,1.1,1.1,2.7-.6,1.7-1.7Z" opacity="0.1" style="mix-blend-mode: darken"/>
                <path d="M164.7,184.4c-.9-5.3,4.4-10.4,7.6-13.9s6.9-6.6,10.1-10.2c1-1.1-.7-2.8-1.7-1.7-6.1,6.7-20.1,15.9-18.3,26.4.3,1.6,2.6.9,2.3-.6Z" fill="#fff" opacity="0.5"/>
            </g>
        </g>
        <g>
            <path d="M254.7,188.7c1-6-1-11-1-17-14,1-28,7-42,6A44.9,44.9,0,0,1,213,173c-4.3,2.8-8.8,5.5-13,8.4,5.3.7,11.2-.8,15.5,1.4,0-.1.1-.1.2-.1,10-4,22-7,33-7a30,30,0,0,0,0,6.7C252,182.6,254.7,184.3,254.7,188.7Z" fill="#b3b3b3"/>
            <g clip-path="url(#clip-path-25)">
                <path d="M256.2,190c1.9-5.7-.5-12.6-1.3-18.4a1.2,1.2,0,0,0-1.2-.8c-14.4,0-28.1,6.5-42.6,6.3l1.1,1.6,2-4.8c.6-1.4-1.7-2-2.3-.6l-2,4.7c-.3.8.5,1.5,1.2,1.5,11,.1,21.6-3.1,32.3-5.2,2.4-.4,5.5-1.4,7.9-1.1s1.4,0,1.8,2.4c.8,4.3,2.2,9.5.8,13.8-.5,1.5,1.8,2.1,2.3.6Z" opacity="0.1"/>
            </g>
        </g>
    </g>

    <!--face-->
    <g id="face">
        <path id="unsmile" d="M270.5,169.6c4-3.4,11.6-3,15.7.1,1.2.9,2.4-1.2,1.2-2.1-5-3.8-13.8-3.7-18.6.3-1.2,1,.5,2.6,1.7,1.7Z" fill="#454545"/>
        <g id="eye-2">
            <path d="M291.6,153.8a2.7,2.7,0,0,0-2.6,2.9,2.7,2.7,0,0,0,3.3,1.7,2.5,2.5,0,0,0,1.4-.8l.3-.6a1.9,1.9,0,0,0,.2-.7,2.1,2.1,0,0,0-1.1-2.3,2.9,2.9,0,0,0-2.7.2" fill="#454545"/>
        </g>
        <g id="eye-1">
            <path d="M264.7,153.8a2.5,2.5,0,0,0-1.9.9,2.4,2.4,0,0,0-.6,2,2.2,2.2,0,0,0,1.2,1.5,3.1,3.1,0,0,0,2.1.2,2.2,2.2,0,0,0,1.3-.8l.4-.6a1.9,1.9,0,0,0,.2-.7,2.1,2.1,0,0,0-1.2-2.3,2.7,2.7,0,0,0-2.6.2" fill="#454545"/>
        </g>
    </g>

    <!--typography-->
    <g id="typo">
        <path id="intero-2" d="M377.9,87.1a2.1,2.1,0,0,1,1.9.2c2.5,1,2.4,2.1,1.5,4.3-.1.2-.6,1.5-.8,1.8s-1.4-.1-1.7-.2c-2.4-1-2.3-2.6-1.3-5Zm5.3-13.3c2-4.9,3.7-10.2,7.7-13.9s8.5-5.8,10.4-10.5c.8-2,.7-3.7-1.6-4.6-4.5-1.8-8.1,4.6-11.1,3.4a1.9,1.9,0,0,1-.8-2.5c1.9-4.7,9-6.2,12.9-4.6s6.8,5.6,5.1,10.1c-3.2,7.9-12.9,10.1-16.1,18l-5.3,13.3c-.3.9-1.4.6-1.9.3s-2-.9-2.1-1.9Z" fill="#444"/>
        <path id="intero-1" d="M133.2,120.9c-.7-4.1-1.7-8.3-.6-12.4s3.3-7.4,2.6-11.3c-.3-1.7-1-2.7-3-2.4-3.7.7-3.5,6.4-6,6.8-.8.2-1.3-.5-1.5-1.3-.7-3.9,3.4-7.8,6.7-8.4s6.9,1,7.5,4.6c1.1,6.6-4.4,12.1-3.3,18.6l2,11.1c.1.7-.7.9-1.2,1s-1.7.2-2.2-.4Zm1.9,11a1.9,1.9,0,0,1,1.4-.7c2-.3,2.4.4,2.8,2.3,0,.2.1,1.3.1,1.5s-.9.6-1.2.6c-2,.3-2.6-.8-2.9-2.8Z" fill="#444"/>
        <path id="uh-oh" d="M104,31a1.8,1.8,0,0,1,1-.7c1.6-.2,1.7,1.5,1.8,2.6v.3c.5,4.3.5,8.7,1,13.1s.6,15.1,5.3,14.4c2.1-.3,3-4.6,3.1-6a110.1,110.1,0,0,0-.6-23.7V30c-.1-.6.7-1,1.3-1.1a1.4,1.4,0,0,1,1.5,1.2v.6a165.3,165.3,0,0,1,.5,19.9v1c-.1,3.2-.4,10.6-5.3,11.3s-6.7-5.1-7.3-8.9v-.8c0-.3-.7-5.9-1-8C104.8,40.5,104.1,35.8,104,31Zm30.6,17.1a18.4,18.4,0,0,0-6.3.7l1.6,11.3c0,.4-.8.7-1.1.8a1.3,1.3,0,0,1-1.3-.8l-4.7-30.9c-.2-.9-.1-1.7.9-1.8s1.6,0,1.6.4l2.6,18.6c1.7,0,5.1-.6,6.6-.6l-.3-1.8c-.8-6-1.9-11.1-2.6-16.3-.1-.5-.1-1.4.6-1.5s1.6.1,1.8.9l4.9,31.3a1.4,1.4,0,0,1-1.3,1.5h-.2c-.3,0-.9-.7-1-1A101.3,101.3,0,0,0,134.6,48.1Zm7.4-5.2c4.6-.5,9.2-1.5,13.9-2.2l4.8-.6c.9-.2,1.1.4,1.2,1.1s-1.5.9-2.2,1L146,44.4l-3.2.9h-.1c-.8.1-1.2-.5-1.3-1.2A.9.9,0,0,1,142,42.9Zm29.1-20.8c9.7-1.4,15.3,29.5,5.8,31.6h-.5c-3.7.5-6-1.4-7.6-5.3S160.2,23.6,171.1,22.1Zm-.5,24.2c.6,1.3,2.6,5.3,4.8,5.2h.5c2.9-.6,3.2-5.9,3.3-8s-1.5-19.8-7.7-19h-.3C164.7,26,169.3,43.2,170.6,46.3Zm24.8-6.5a16,16,0,0,0-6.3.6l1.5,11.3c.1.4-.7.7-1,.8a1.2,1.2,0,0,1-1.3-.7l-4.8-31c-.1-.9-.1-1.6.9-1.8s1.6,0,1.7.4L188.7,38c1.6,0,5.1-.5,6.5-.6l-.2-1.8c-.8-6-1.9-11.1-2.6-16.3-.1-.5-.1-1.4.5-1.5s1.7.1,1.9.9L199.7,50a1.4,1.4,0,0,1-1.3,1.5h-.2c-.4,0-1-.8-1.1-1A100.9,100.9,0,0,0,195.4,39.8ZM201,16.7c.6-.1,1.3-.1,1.6.7s.8,3.7.8,4.3c1.3,9.1,3,14.1,4.2,23.2.1.6.2,1.3-.6,1.5s-1.7-1.5-1.9-2.6v-.2c-2-9.9-2.7-16.1-5.1-25.9C200.1,17,200.3,16.8,201,16.7Zm5.9,31.8a2,2,0,0,1,2.2,1.9c.2,1-.7,1.2-1.6,1.3s-1.8-.4-1.9-1.6S206.4,48.6,206.9,48.5Z" fill="#444"/>
    </g>
</svg>
