<svg width="64" height="64" viewBox="0 0 64 64" fill="none" xmlns="http://www.w3.org/2000/svg">
<path fill-rule="evenodd" clip-rule="evenodd" d="M32 0C25.671 0 19.4841 1.87677 14.2218 5.39297C8.95939 8.90918 4.85787 13.9069 2.43587 19.7541C0.0138657 25.6014 -0.619842 32.0355 0.614885 38.2429C1.84961 44.4503 4.89732 50.1521 9.3726 54.6274C13.8479 59.1027 19.5497 62.1504 25.7571 63.3851C31.9645 64.6199 38.3986 63.9861 44.2459 61.5641C50.0931 59.1421 55.0908 55.0406 58.607 49.7782C62.1232 44.5159 64 38.329 64 32C64 23.5131 60.6286 15.3737 54.6274 9.37258C48.6263 3.37142 40.4869 0 32 0ZM48.8433 16.7351C49.1676 16.4973 49.3838 16.4108 49.7081 16.5838C49.7081 16.5822 49.708 16.5807 49.7076 16.5792C51.9227 18.3716 53.365 20.7005 54.2487 23.4162L54.2586 23.4446C54.4117 23.881 54.6666 24.6077 54.0108 24.7135C53.3269 25.0973 52.6015 25.4019 51.8487 25.6216C50.2533 25.9813 48.7326 26.5022 47.2162 27.0217C45.1773 27.7201 43.1461 28.4159 40.9514 28.7135C40.455 28.8825 39.9328 28.9947 39.405 29.1082C38.8522 29.227 38.2933 29.3471 37.7514 29.5351C36.6919 29.9027 36.2378 28.8432 36.8865 28.2811C37.0186 28.215 37.0942 28.1006 37.1725 27.982C37.2223 27.9066 37.2733 27.8295 37.3405 27.7622C40.8649 23.7622 44.4541 19.7622 48.8865 16.7135C48.8216 16.7568 48.7135 16.8216 48.8433 16.7351ZM38.8757 10.2486C38.8543 10.3341 38.7908 10.4617 38.8517 10.2982L38.8757 10.2486ZM46.9189 13.427C44.7789 11.5248 42.3579 10.206 39.5263 9.75166C39.1488 9.76375 38.9178 10.1219 38.8541 10.2919L38.8517 10.2982C38.3757 11.2843 37.9648 12.3006 37.6216 13.3405C36.2206 16.8626 35.4675 20.6124 34.7162 24.3534L34.7162 24.3535L34.7162 24.3535L34.7159 24.3549L34.7156 24.3563L34.715 24.3591C34.6319 24.773 34.5488 25.1867 34.4649 25.6C34.4378 25.6903 34.4295 25.7845 34.4213 25.8792C34.4097 26.0112 34.3981 26.1444 34.3351 26.2703C34.0324 27.0919 34.9622 27.7622 35.6973 26.9189C36.0778 26.4825 36.5046 26.0982 36.9268 25.718C37.3203 25.3637 37.7098 25.013 38.0541 24.627C39.8104 23.2789 41.2129 21.6689 42.6179 20.0562L42.6179 20.0562L42.6179 20.0562L42.618 20.0562C43.669 18.8497 44.7214 17.6416 45.9243 16.5405C46.464 15.9672 46.949 15.3446 47.373 14.6811C47.8395 14.2754 47.3166 13.7937 46.9823 13.4857L46.9817 13.4851C46.9598 13.465 46.9388 13.4456 46.9189 13.427ZM35.2216 33.7081C34.9622 34.9838 33.3405 35.7405 31.7622 35.8703V32H35.4162C35.4997 32.4174 35.4027 32.8606 35.3044 33.3097C35.2754 33.4422 35.2463 33.5751 35.2216 33.7081ZM36.7568 51.0486C36.7568 51.0462 36.7572 51.0439 36.7579 51.0416C36.7643 51.0368 36.7711 51.0319 36.7784 51.027C36.7727 51.027 36.7672 51.0293 36.7631 51.0334C36.7607 51.0357 36.759 51.0386 36.7579 51.0416C36.7528 51.0456 36.7479 51.0495 36.7432 51.0534C36.7407 51.0555 36.7382 51.0576 36.7358 51.0597C36.7292 51.0654 36.7229 51.0711 36.7169 51.0765C36.69 51.1008 36.6665 51.122 36.627 51.1351H36.6703C35.6282 52.3682 34.2792 52.7783 32.8362 53.2168C32.4828 53.3243 32.1237 53.4334 31.7622 53.5568V56C20.4108 56.7568 9.53515 48.3892 8.0865 36.9081C6.50812 28.9946 10.0324 19.3081 16.9946 14.1838H16.9081C19.4162 12.4757 22.9406 10.8973 25.8379 9.75135C27.6324 8.77838 29.6 7.91351 31.7622 7.97838C33.0259 7.96239 34.2876 8.08566 35.5243 8.34594L35.5779 8.35657C36.0191 8.44361 36.7472 8.58726 36.5189 9.18919C36.4414 10.753 36.0934 12.1238 35.7429 13.5045C35.5071 14.4337 35.2701 15.3674 35.1135 16.3676C34.9143 17.0573 34.7693 17.7797 34.6229 18.5096L34.6229 18.5096C34.3562 19.8389 34.0844 21.1933 33.4703 22.4216C33.3651 22.9372 33.2035 23.4425 33.0405 23.9526C32.8685 24.4906 32.6948 25.0339 32.5838 25.6C32.5622 26.0757 32.1514 26.573 31.7622 26.5513C28.5466 26.5706 28.1775 29.3678 27.9214 31.3084C27.8899 31.5469 27.8602 31.7725 27.827 31.9784H25.146C24.8433 29.5784 26.0324 27.1351 27.6973 26.0973C27.9754 25.9249 28.2878 25.6881 28.622 25.4348C29.5872 24.7033 30.7343 23.8338 31.7622 23.9784V21.1243C25.9676 20.2595 21.9027 27.8703 21.6433 32C21.6101 32.3555 21.5753 32.7239 21.54 33.0972L21.5399 33.0982L21.5399 33.0984L21.5399 33.0985C21.3221 35.4038 21.0871 37.8906 21.1243 38.6162C21.5351 42.4 25.5135 45.1027 29.6216 45.3189H29.5784C29.9676 45.3622 30.8324 45.3838 31.7622 45.4054V40.0432C34.7243 39.8703 37.2541 42.1838 38.227 44.8649C38.227 44.8865 38.227 44.9081 38.2487 44.9081L38.227 44.8649C39.3297 47.027 38.5297 49.5351 36.7568 51.0486ZM42.0108 55.9567C40.2378 56.3459 38.4433 54.0973 39.373 52.5405C39.373 52.5348 39.3753 52.5293 39.3793 52.5252C39.3834 52.5212 39.3889 52.5189 39.3946 52.5189C40.4973 50.4432 42.2703 48.3676 44.627 47.7405H44.5838C46.0973 47.3513 49.1243 47.8919 49.0378 49.9459C48.4541 53.427 45.146 55.9135 42.0108 55.9567ZM38.9297 42.2273C38.935 42.2326 38.9403 42.2379 38.9405 42.2485C38.045 41.0972 37.9906 39.8408 37.927 38.3755L37.9243 38.3135C37.6614 36.736 37.6087 35.3355 37.5525 33.8429C37.5301 33.2488 37.5072 32.6402 37.4703 32C37.4054 31.5892 37.7081 31.373 38.0757 31.3081C38.6084 31.1314 39.1419 30.9524 39.6761 30.773C43.3919 29.5257 47.1491 28.2644 51.0054 27.6973C51.3313 27.6722 51.7371 27.5872 52.1702 27.4965C53.2313 27.2742 54.4561 27.0176 55.0703 27.5243C55.6209 28.9533 55.9137 30.4687 55.9351 32H55.9568C56.0865 33.1676 56.0432 34.2919 55.7405 36.0216C54.4649 43.2212 44.1309 50.464 38.9414 42.2501L39.1567 42.5084C39.0827 42.4034 39.0033 42.3023 38.9188 42.2056C38.9188 42.2165 38.9243 42.2219 38.9297 42.2273ZM31.7624 13.0806V10.2914C29.0295 10.1557 24.4898 12.7478 19.5915 15.5445C19.0255 15.8677 18.4546 16.1937 17.8813 16.5184C13.557 20.0427 10.5299 26.3563 10.2921 31.9995H13.0164C13.0967 30.6882 13.5247 29.4349 13.947 28.1986L13.947 28.1985C14.2071 27.4371 14.465 26.682 14.638 25.9238C16.4759 19.3941 25.2542 14.0103 31.7624 13.0806ZM22.9406 23.2438C25.0595 20.2384 28.3244 18.6816 31.7622 18.8546V15.3952C26.0757 16.6492 20.8866 19.4816 17.773 24.4979C16.8728 26.9531 16.1148 29.4581 15.5028 32.0006H19.3298C19.1352 28.0222 19.892 25.9249 22.9406 23.2438ZM44.1651 50.4076C44.5076 50.2142 44.8521 50.0197 45.2108 49.9455C46.0108 49.8807 46.0108 50.6158 45.3837 51.2861C44.7567 51.9563 42.7459 53.9023 42.054 52.7563C41.3837 52.0428 42.7243 51.0482 43.4162 50.7888H43.3945C43.6536 50.6962 43.9088 50.5522 44.1651 50.4076ZM47.7839 35.8906C45.4488 35.1554 43.0488 40.9933 45.1028 41.4041C47.6974 41.7933 50.1623 36.2149 47.7839 35.8906ZM32.8866 46.9404C33.2109 50.789 36.7785 45.4917 35.3947 43.762C33.9677 42.8755 32.9947 45.8377 32.8866 46.9404Z" fill="url(#paint0_linear_1619_1321)"/>
<defs>
<linearGradient id="paint0_linear_1619_1321" x1="48.0021" y1="59.7168" x2="15.9978" y2="4.28326" gradientUnits="userSpaceOnUse">
<stop stop-color="#21D37D"/>
<stop offset="0.24" stop-color="#23D080"/>
<stop offset="0.43" stop-color="#2BC98A"/>
<stop offset="0.6" stop-color="#38BB9B"/>
<stop offset="0.77" stop-color="#4AA8B3"/>
<stop offset="0.92" stop-color="#6190D1"/>
<stop offset="1" stop-color="#6F82E3"/>
</linearGradient>
</defs>
</svg>
